# Blender v2.62 (sub 0) OBJ File: 'engine.blend'
# www.blender.org
v -0.776124 0.000000 0.278496
v -0.776124 -0.055706 0.273145
v -0.776124 -0.109272 0.257297
v -0.776124 -0.158638 0.231561
v -0.776124 -0.201908 0.196926
v -0.776124 -0.237419 0.154724
v -0.776124 -0.263806 0.106576
v -0.776124 -0.280054 0.054332
v -0.776124 -0.285541 0.000000
v -0.776124 -0.280054 -0.054331
v -0.776124 -0.263806 -0.106575
v -0.776124 -0.237419 -0.154723
v -0.776124 -0.201908 -0.196926
v -0.776124 -0.158638 -0.231560
v -0.776124 -0.109272 -0.257296
v -0.776124 -0.055706 -0.273144
v -0.776124 0.000000 -0.278495
v -0.776124 0.055706 -0.273144
v -0.776124 0.109272 -0.257296
v -0.776124 0.158638 -0.231560
v -0.776124 0.201908 -0.196926
v -0.776124 0.237419 -0.154723
v -0.776124 0.263806 -0.106575
v -0.776124 0.280055 -0.054331
v -0.776124 0.285541 0.000001
v -0.776124 0.280054 0.054332
v -0.776124 0.263805 0.106576
v -0.776124 0.237419 0.154724
v -0.776124 0.201908 0.196927
v -0.776124 0.158638 0.231561
v -0.776124 0.109271 0.257297
v -0.776124 0.055706 0.273145
v -1.770039 0.000000 -0.000000
v -0.915620 0.000000 0.352849
v -0.915620 0.070578 0.346069
v -0.915620 0.138445 0.325990
v -0.915620 0.200991 0.293383
v -0.915620 0.255813 0.249502
v -0.915620 0.300805 0.196033
v -0.915620 0.334237 0.135030
v -0.915619 0.354824 0.068838
v -0.915619 0.361775 0.000001
v -0.915619 0.354824 -0.068837
v -0.915619 0.334237 -0.135029
v -0.915619 0.300805 -0.196032
v -0.915619 0.255814 -0.249501
v -0.915619 0.200992 -0.293382
v -0.915619 0.138446 -0.325989
v -0.915619 0.070579 -0.346068
v -0.915619 0.000000 -0.352848
v -0.915619 -0.070579 -0.346068
v -0.915619 -0.138445 -0.325989
v -0.915619 -0.200992 -0.293383
v -0.915619 -0.255814 -0.249501
v -0.915619 -0.300805 -0.196032
v -0.915619 -0.334237 -0.135029
v -0.915619 -0.354824 -0.068837
v -0.915619 -0.361775 0.000000
v -0.915619 -0.354824 0.068838
v -0.915620 -0.334237 0.135030
v -0.915620 -0.300805 0.196032
v -0.915620 -0.255814 0.249502
v -0.915620 -0.200992 0.293383
v -0.915620 -0.138445 0.325990
v -0.915620 -0.070579 0.346069
v 0.021241 0.000000 0.000001
v 0.021241 0.000000 0.352849
v 0.021241 -0.070579 0.346069
v 0.021241 -0.138445 0.325990
v 0.021241 -0.200992 0.293383
v 0.021241 -0.255814 0.249502
v 0.021241 -0.300805 0.196033
v 0.021241 -0.334237 0.135030
v 0.021241 -0.354824 0.068838
v 0.021241 -0.361775 0.000001
v 0.021241 -0.354824 -0.068837
v 0.021241 -0.334237 -0.135029
v 0.021241 -0.300805 -0.196031
v 0.021241 -0.255814 -0.249501
v 0.021241 -0.200992 -0.293382
v 0.021241 -0.138445 -0.325989
v 0.021241 -0.070579 -0.346068
v 0.021241 0.000000 -0.352848
v 0.021241 0.070579 -0.346068
v 0.021241 0.138446 -0.325989
v 0.021241 0.200992 -0.293382
v 0.021241 0.255814 -0.249501
v 0.021241 0.300805 -0.196031
v 0.021241 0.334237 -0.135028
v 0.021241 0.354824 -0.068836
v 0.021241 0.361775 0.000001
v 0.021241 0.354824 0.068838
v 0.021241 0.334237 0.135030
v 0.021241 0.300805 0.196033
v 0.021241 0.255813 0.249503
v 0.021241 0.200991 0.293384
v 0.021241 0.138445 0.325990
v 0.021241 0.070578 0.346069
vn -0.268663 -0.092105 0.958821
vn -0.269118 -0.273238 0.923535
vn -0.269964 -0.445112 0.853812
vn -0.271082 -0.601500 0.751473
vn -0.272309 -0.736247 0.619507
vn -0.273456 -0.843518 0.462276
vn -0.274345 -0.918244 0.285593
vn -0.274829 -0.956628 0.096604
vn -0.274829 -0.956628 -0.096603
vn -0.274344 -0.918244 -0.285593
vn -0.273456 -0.843518 -0.462276
vn -0.272308 -0.736246 -0.619508
vn -0.271082 -0.601501 -0.751473
vn -0.269963 -0.445111 -0.853813
vn -0.269116 -0.273239 -0.923535
vn -0.268661 -0.092105 -0.958821
vn -0.268662 0.092105 -0.958821
vn -0.269116 0.273239 -0.923535
vn -0.269963 0.445112 -0.853812
vn -0.271082 0.601501 -0.751473
vn -0.272308 0.736247 -0.619507
vn -0.273456 0.843518 -0.462276
vn -0.274344 0.918244 -0.285592
vn -0.274829 0.956628 -0.096603
vn -0.274829 0.956628 0.096604
vn -0.274345 0.918244 0.285594
vn -0.273456 0.843517 0.462277
vn -0.272309 0.736246 0.619508
vn -0.271082 0.601499 0.751474
vn -0.269964 0.445111 0.853813
vn -0.269118 0.273237 0.923535
vn -0.268663 0.092105 0.958821
vn -0.468688 -0.084467 -0.879316
vn -0.469355 -0.250513 -0.846728
vn -0.470596 -0.407887 -0.782412
vn -0.472231 -0.550832 -0.688173
vn -0.474021 -0.673734 -0.566910
vn -0.475692 -0.771369 -0.422738
vn -0.476984 -0.839256 -0.261028
vn -0.477687 -0.874084 -0.088269
vn -0.477688 -0.874084 0.088267
vn -0.476985 -0.839257 0.261025
vn -0.475693 -0.771370 0.422735
vn -0.474022 -0.673735 0.566908
vn -0.472232 -0.550833 0.688171
vn -0.470597 -0.407889 0.782410
vn -0.469357 -0.250514 0.846727
vn -0.468690 -0.084468 0.879315
vn -0.468690 0.084468 0.879315
vn -0.469357 0.250514 0.846727
vn -0.470597 0.407888 0.782411
vn -0.472232 0.550833 0.688172
vn -0.474022 0.673735 0.566908
vn -0.475693 0.771369 0.422736
vn -0.476984 0.839256 0.261026
vn -0.477688 0.874084 0.088267
vn -0.477687 0.874084 -0.088269
vn -0.476984 0.839256 -0.261027
vn -0.475692 0.771369 -0.422737
vn -0.474021 0.673735 -0.566908
vn -0.472231 0.550833 -0.688172
vn -0.470596 0.407888 -0.782411
vn -0.469355 0.250514 -0.846728
vn -0.468688 0.084468 -0.879316
vn 1.000000 -0.000000 0.000001
vn 1.000000 0.000001 0.000001
vn 1.000000 -0.000000 0.000000
vn 1.000000 0.000000 0.000003
vn 1.000000 0.000001 0.000000
vn 1.000000 -0.000001 0.000001
vn 1.000000 -0.000001 0.000000
vn -0.000000 -0.095622 0.995418
vn -0.000000 -0.283705 0.958912
vn -0.000000 -0.462276 0.886736
vn -0.000000 -0.624899 0.780706
vn -0.000000 -0.765162 0.643838
vn -0.000000 -0.876943 0.480595
vn -0.000000 -0.954881 0.296988
vn -0.000000 -0.994940 0.100473
vn 0.000000 -0.994940 -0.100472
vn 0.000000 -0.954881 -0.296988
vn 0.000000 -0.876943 -0.480594
vn 0.000000 -0.765162 -0.643838
vn 0.000000 -0.624899 -0.780706
vn 0.000000 -0.462275 -0.886737
vn 0.000000 -0.283705 -0.958912
vn 0.000000 -0.095621 -0.995418
vn 0.000000 0.095622 -0.995418
vn 0.000000 0.283705 -0.958912
vn 0.000000 0.462276 -0.886736
vn 0.000000 0.624899 -0.780705
vn 0.000000 0.765162 -0.643838
vn 0.000000 0.876943 -0.480594
vn 0.000000 0.954882 -0.296987
vn 0.000000 0.994940 -0.100471
vn -0.000000 0.994940 0.100473
vn -0.000000 0.954881 0.296989
vn -0.000000 0.876942 0.480596
vn -0.000000 0.765161 0.643839
vn -0.000000 0.624898 0.780707
vn -0.000000 0.462274 0.886737
vn -0.000000 0.283704 0.958912
vn -0.000000 0.095620 0.995418
s off
f 2//1 1//1 33//1
f 33//2 3//2 2//2
f 33//3 4//3 3//3
f 33//4 5//4 4//4
f 33//5 6//5 5//5
f 33//6 7//6 6//6
f 33//7 8//7 7//7
f 33//8 9//8 8//8
f 33//9 10//9 9//9
f 33//10 11//10 10//10
f 33//11 12//11 11//11
f 33//12 13//12 12//12
f 33//13 14//13 13//13
f 33//14 15//14 14//14
f 33//15 16//15 15//15
f 33//16 17//16 16//16
f 33//17 18//17 17//17
f 33//18 19//18 18//18
f 33//19 20//19 19//19
f 33//20 21//20 20//20
f 33//21 22//21 21//21
f 33//22 23//22 22//22
f 33//23 24//23 23//23
f 33//24 25//24 24//24
f 33//25 26//25 25//25
f 33//26 27//26 26//26
f 33//27 28//27 27//27
f 33//28 29//28 28//28
f 33//29 30//29 29//29
f 33//30 31//30 30//30
f 33//31 32//31 31//31
f 33//32 1//32 32//32
f 32//33 1//33 34//33
f 32//33 34//33 35//33
f 31//34 32//34 35//34
f 31//34 35//34 36//34
f 30//35 31//35 36//35
f 30//35 36//35 37//35
f 29//36 30//36 37//36
f 29//36 37//36 38//36
f 28//37 29//37 38//37
f 28//37 38//37 39//37
f 27//38 28//38 39//38
f 27//38 39//38 40//38
f 26//39 27//39 40//39
f 26//39 40//39 41//39
f 25//40 26//40 41//40
f 25//40 41//40 42//40
f 24//41 25//41 42//41
f 24//41 42//41 43//41
f 23//42 24//42 43//42
f 23//42 43//42 44//42
f 22//43 23//43 44//43
f 22//43 44//43 45//43
f 21//44 22//44 45//44
f 21//44 45//44 46//44
f 20//45 21//45 46//45
f 20//45 46//45 47//45
f 19//46 20//46 47//46
f 19//46 47//46 48//46
f 18//47 19//47 48//47
f 18//47 48//47 49//47
f 17//48 18//48 49//48
f 17//48 49//48 50//48
f 16//49 17//49 50//49
f 16//49 50//49 51//49
f 15//50 16//50 51//50
f 15//50 51//50 52//50
f 14//51 15//51 52//51
f 14//51 52//51 53//51
f 13//52 14//52 53//52
f 13//52 53//52 54//52
f 12//53 13//53 54//53
f 12//53 54//53 55//53
f 11//54 12//54 55//54
f 11//54 55//54 56//54
f 10//55 11//55 56//55
f 10//55 56//55 57//55
f 9//56 10//56 57//56
f 9//56 57//56 58//56
f 8//57 9//57 58//57
f 8//57 58//57 59//57
f 7//58 8//58 59//58
f 7//58 59//58 60//58
f 6//59 7//59 60//59
f 6//59 60//59 61//59
f 5//60 6//60 61//60
f 5//60 61//60 62//60
f 4//61 5//61 62//61
f 4//61 62//61 63//61
f 3//62 4//62 63//62
f 3//62 63//62 64//62
f 2//63 3//63 64//63
f 2//63 64//63 65//63
f 1//64 2//64 65//64
f 1//64 65//64 34//64
f 66//65 67//65 68//65
f 66//66 68//66 69//66
f 66//67 69//67 70//67
f 66//67 70//67 71//67
f 66//65 71//65 72//65
f 66//65 72//65 73//65
f 66//67 73//67 74//67
f 66//65 74//65 75//65
f 66//68 75//68 76//68
f 66//69 76//69 77//69
f 66//65 77//65 78//65
f 66//65 78//65 79//65
f 66//66 79//66 80//66
f 66//65 80//65 81//65
f 66//65 81//65 82//65
f 66//65 82//65 83//65
f 66//65 83//65 84//65
f 66//65 84//65 85//65
f 66//65 85//65 86//65
f 66//70 86//70 87//70
f 66//65 87//65 88//65
f 66//65 88//65 89//65
f 66//71 89//71 90//71
f 66//68 90//68 91//68
f 66//65 91//65 92//65
f 66//67 92//67 93//67
f 66//65 93//65 94//65
f 66//65 94//65 95//65
f 66//67 95//67 96//67
f 66//67 96//67 97//67
f 66//70 97//70 98//70
f 98//65 67//65 66//65
f 34//72 65//72 68//72
f 34//72 68//72 67//72
f 65//73 64//73 69//73
f 65//73 69//73 68//73
f 64//74 63//74 70//74
f 64//74 70//74 69//74
f 63//75 62//75 71//75
f 63//75 71//75 70//75
f 62//76 61//76 72//76
f 62//76 72//76 71//76
f 61//77 60//77 73//77
f 61//77 73//77 72//77
f 60//78 59//78 74//78
f 60//78 74//78 73//78
f 59//79 58//79 75//79
f 59//79 75//79 74//79
f 58//80 57//80 76//80
f 58//80 76//80 75//80
f 57//81 56//81 77//81
f 57//81 77//81 76//81
f 56//82 55//82 78//82
f 56//82 78//82 77//82
f 55//83 54//83 79//83
f 55//83 79//83 78//83
f 54//84 53//84 80//84
f 54//84 80//84 79//84
f 53//85 52//85 81//85
f 53//85 81//85 80//85
f 52//86 51//86 82//86
f 52//86 82//86 81//86
f 51//87 50//87 83//87
f 51//87 83//87 82//87
f 50//88 49//88 84//88
f 50//88 84//88 83//88
f 49//89 48//89 85//89
f 49//89 85//89 84//89
f 48//90 47//90 86//90
f 48//90 86//90 85//90
f 47//91 46//91 87//91
f 47//91 87//91 86//91
f 46//92 45//92 88//92
f 46//92 88//92 87//92
f 45//93 44//93 89//93
f 45//93 89//93 88//93
f 44//94 43//94 90//94
f 44//94 90//94 89//94
f 43//95 42//95 91//95
f 43//95 91//95 90//95
f 42//96 41//96 92//96
f 42//96 92//96 91//96
f 41//97 40//97 93//97
f 41//97 93//97 92//97
f 40//98 39//98 94//98
f 40//98 94//98 93//98
f 39//99 38//99 95//99
f 39//99 95//99 94//99
f 38//100 37//100 96//100
f 38//100 96//100 95//100
f 37//101 36//101 97//101
f 37//101 97//101 96//101
f 36//102 35//102 98//102
f 36//102 98//102 97//102
f 35//103 34//103 67//103
f 35//103 67//103 98//103
