# Blender v2.62 (sub 0) OBJ File: 'engine2.blend'
# www.blender.org
v 0.311918 0.250234 -0.250234
v 0.311918 -0.250234 -0.250234
v -0.308316 -0.250034 -0.250034
v -0.308315 0.250034 -0.250034
v 0.314725 0.253119 0.232997
v 0.314724 -0.253120 0.232997
v -0.304330 -0.252812 0.232664
v -0.304330 0.252812 0.232664
v 0.735751 0.216004 0.226975
v 0.735751 -0.216005 0.226975
v 0.742498 -0.218870 -0.218870
v 0.742498 0.218870 -0.218870
v -0.742166 -0.214823 0.224818
v -0.742165 0.214824 0.224818
v -0.748478 0.218601 -0.218601
v -0.748478 -0.218601 -0.218601
v 0.313741 -0.000000 -0.343040
v 0.000590 0.248476 -0.248476
v 0.313511 0.339303 0.017031
v 0.000590 -0.248476 -0.248476
v 0.313511 -0.339303 0.017031
v -0.310826 0.000000 -0.342768
v -0.310677 -0.339004 0.016953
v -0.310677 0.339004 0.016953
v 0.314997 -0.000000 0.350510
v 0.004337 0.251591 0.231558
v 0.004336 -0.251591 0.231558
v -0.311488 0.000000 0.350238
v 0.591994 -0.258515 0.244509
v 0.734215 -0.000000 0.261363
v 0.591994 0.258514 0.244509
v 0.583606 -0.249989 -0.249989
v 0.743902 -0.252790 0.000000
v 0.743903 0.252789 0.000000
v 0.583606 0.249989 -0.249989
v 0.743903 -0.000000 -0.252790
v -0.588628 0.247851 0.232123
v -0.767982 0.000000 0.260677
v -0.588628 -0.247850 0.232123
v -0.574859 0.249479 -0.249479
v -0.778854 0.252497 -0.000000
v -0.778854 -0.252496 -0.000000
v -0.574859 -0.249478 -0.249479
v -0.778854 0.000000 -0.252496
v 0.000542 0.000000 -0.341720
v 0.000828 -0.000000 0.348980
v 0.000486 -0.337903 0.016945
v 0.000486 0.337903 0.016945
v 0.596040 -0.000000 0.340556
v 0.581399 -0.334079 0.010848
v 0.581399 0.334079 0.010848
v 0.587001 -0.000000 -0.335180
v 0.733746 -0.000000 0.000000
v -0.596665 0.000000 0.339293
v -0.578622 0.332737 0.009488
v -0.578622 -0.332737 0.009488
v -0.584021 0.000000 -0.334491
v -0.843255 0.000000 -0.000000
v 0.315172 0.133324 0.318839
v 0.315171 -0.133324 0.318839
v 0.154349 0.263682 0.207621
v -0.158347 0.263618 0.207585
v 0.154349 -0.263683 0.207621
v -0.158347 -0.263618 0.207585
v -0.305208 -0.133163 0.318555
v -0.305208 0.133163 0.318555
v 0.450097 -0.265370 0.210777
v 0.450098 0.265369 0.210777
v -0.450575 0.263940 0.208333
v -0.450575 -0.263940 0.208333
v -0.156764 -0.000000 0.349435
v 0.004264 0.132436 0.317513
v 0.157964 -0.000000 0.349561
v 0.004263 -0.132436 0.317513
v 0.601710 -0.130072 0.301838
v 0.455144 -0.000000 0.348501
v 0.601710 0.130072 0.301838
v -0.613962 0.129068 0.300211
v -0.451924 0.000000 0.347955
v -0.613962 -0.129068 0.300211
v -0.159107 0.133789 0.315773
v 0.153886 0.133810 0.315838
v -0.159107 -0.133789 0.315773
v 0.153886 -0.133811 0.315838
v 0.450172 -0.134712 0.315152
v 0.450172 0.134712 0.315152
v -0.454388 0.134211 0.314199
v -0.454388 -0.134211 0.314199
v -0.553755 -0.163760 0.358533
v -0.483096 -0.164420 0.360484
v -0.480946 -0.228893 0.328970
v -0.553755 0.163760 0.358533
v -0.483096 0.164421 0.360484
v -0.480946 0.228893 0.328970
v 0.417084 0.228945 0.329313
v 0.417698 0.164421 0.361285
v 0.349799 0.163818 0.362012
v 0.349799 -0.163819 0.362012
v 0.417698 -0.164421 0.361285
v 0.417084 -0.228946 0.329313
v 0.117172 -0.227132 0.327414
v 0.117273 -0.163054 0.360177
v 0.040736 -0.162489 0.360340
v -0.195206 -0.227494 0.327820
v -0.195624 -0.163322 0.360555
v -0.271164 -0.163344 0.361566
v 0.117172 0.227132 0.327414
v 0.117273 0.163053 0.360177
v 0.040736 0.162489 0.360340
v -0.195206 0.227494 0.327820
v -0.195624 0.163322 0.360555
v -0.271164 0.163344 0.361566
v -0.548302 -0.226713 0.332503
v -0.548302 0.226713 0.332503
v 0.040682 -0.224972 0.330880
v 0.040682 0.224972 0.330880
v 0.349240 0.226765 0.332791
v 0.349240 -0.226765 0.332791
v -0.270623 0.226123 0.332153
v -0.270623 -0.226123 0.332153
vt 0.319051 0.716520
vt 0.318973 0.791948
vt 0.289695 0.760702
vt 0.291896 0.727511
vt 0.158058 0.716529
vt 0.158068 0.795971
vt 0.129528 0.800168
vt 0.121909 0.766743
vt 0.811587 0.072541
vt 0.806409 0.147617
vt 0.783503 0.134074
vt 0.784190 0.100827
vt 0.786704 0.795970
vt 0.786714 0.716528
vt 0.822863 0.766742
vt 0.815244 0.800167
vt 0.010793 0.867128
vt 0.010783 0.788058
vt 0.046783 0.837839
vt 0.039560 0.871318
vt 0.890050 0.800167
vt 0.889974 0.863700
vt 0.864998 0.847954
vt 0.864551 0.816009
vt 0.858863 0.716528
vt 0.858853 0.795599
vt 0.830086 0.799789
vt 0.822863 0.766310
vt 0.118515 0.716529
vt 0.118530 0.796446
vt 0.090249 0.801225
vt 0.082777 0.767807
vt 0.319051 0.791948
vt 0.318930 0.862350
vt 0.294426 0.845353
vt 0.294204 0.809341
vt 0.082777 0.716529
vt 0.082762 0.796444
vt 0.054243 0.801237
vt 0.046783 0.767751
vt 0.146845 0.800168
vt 0.146721 0.868921
vt 0.121974 0.853294
vt 0.121909 0.817747
vt 0.158068 0.796446
vt 0.158084 0.716529
vt 0.193822 0.767807
vt 0.186349 0.801225
vt 0.193836 0.796444
vt 0.193822 0.716529
vt 0.229816 0.767751
vt 0.222356 0.801237
vt 0.786751 0.864176
vt 0.786704 0.800167
vt 0.829549 0.830781
vt 0.826737 0.863060
vt 0.193822 0.801225
vt 0.193650 0.862771
vt 0.154555 0.864205
vt 0.151565 0.832708
vt 0.083638 0.870865
vt 0.083527 0.801225
vt 0.118530 0.839902
vt 0.112831 0.872388
vt 0.289640 0.806157
vt 0.289695 0.874383
vt 0.261169 0.877308
vt 0.255271 0.845397
vt 0.335202 0.089202
vt 0.343495 0.154129
vt 0.293223 0.139813
vt 0.292079 0.108123
vt 0.088251 0.562303
vt 0.075149 0.627352
vt 0.026615 0.608589
vt 0.028405 0.576882
vt 0.085134 0.138492
vt 0.073408 0.202265
vt 0.024220 0.186254
vt 0.025984 0.154317
vt 0.331802 0.514245
vt 0.339921 0.577925
vt 0.290813 0.562373
vt 0.289695 0.530454
vt 0.893209 0.729003
vt 0.893098 0.797317
vt 0.864733 0.799789
vt 0.858863 0.767805
vt 0.048053 0.871003
vt 0.048002 0.801237
vt 0.082777 0.839704
vt 0.076995 0.872274
vt 0.333545 0.222956
vt 0.343152 0.291638
vt 0.293232 0.274273
vt 0.291628 0.238785
vt 0.333452 0.368203
vt 0.342344 0.438774
vt 0.292688 0.421262
vt 0.291595 0.385274
vt 0.087785 0.424796
vt 0.075071 0.493560
vt 0.025962 0.477930
vt 0.027942 0.442432
vt 0.086988 0.277657
vt 0.074563 0.348321
vt 0.025533 0.331448
vt 0.027267 0.295444
vt 0.829549 0.870066
vt 0.829573 0.800167
vt 0.864551 0.838740
vt 0.858716 0.871382
vt 0.229814 0.801237
vt 0.229816 0.869746
vt 0.201245 0.872287
vt 0.195287 0.840178
vt 0.160541 0.899411
vt 0.160585 0.865001
vt 0.193822 0.864205
vt 0.192179 0.896827
vt 0.002899 0.578165
vt 0.003829 0.611413
vt 0.000000 0.186253
vt 0.000259 0.154300
vt 0.121909 0.903573
vt 0.121933 0.870324
vt 0.153874 0.868921
vt 0.153862 0.903438
vt 0.864625 0.899716
vt 0.864551 0.863700
vt 0.897652 0.863859
vt 0.899119 0.899864
vt 0.795022 0.899724
vt 0.795015 0.864176
vt 0.828231 0.864615
vt 0.829549 0.900117
vt 0.001291 0.331684
vt 0.001270 0.295668
vt 0.001689 0.478447
vt 0.001943 0.442900
vt 0.683556 0.202705
vt 0.783250 0.202827
vt 0.782372 0.349319
vt 0.683545 0.350076
vt 0.555703 0.203695
vt 0.556423 0.350181
vt 0.783503 0.494676
vt 0.683891 0.496593
vt 0.556137 0.495543
vt 0.553636 0.513616
vt 0.418641 0.513624
vt 0.419660 0.366339
vt 0.553856 0.367127
vt 0.420279 0.219919
vt 0.555123 0.221770
vt 0.184864 0.202236
vt 0.287917 0.202936
vt 0.287611 0.349440
vt 0.185446 0.349534
vt 0.289366 0.494786
vt 0.186428 0.495947
vt 0.552879 0.641457
vt 0.421539 0.639707
vt 0.542599 0.716306
vt 0.437536 0.716520
vt 0.325075 0.644674
vt 0.338728 0.712516
vt 0.186004 0.076193
vt 0.287075 0.075096
vt 0.068544 0.071793
vt 0.068406 0.004276
vt 0.175934 0.000000
vt 0.267281 0.000482
vt 0.555613 0.075852
vt 0.682199 0.074098
vt 0.782938 0.074985
vt 0.564945 0.000930
vt 0.669604 0.000000
vt 0.763972 0.000171
vt 0.458119 0.956120
vt 0.350677 0.954562
vt 0.319256 0.854606
vt 0.438734 0.836508
vt 0.555613 0.924909
vt 0.555586 0.818808
vt 0.319665 0.749828
vt 0.421826 0.716520
vt 0.524190 0.717459
vt 0.289695 0.620210
vt 0.189312 0.622040
vt 0.270894 0.702058
vt 0.179743 0.716529
vt 0.072903 0.699706
vt 0.425251 0.093876
vt 0.555613 0.096352
vt 0.343578 0.017102
vt 0.441385 0.000000
vt 0.546242 0.014740
vt 0.783326 0.620096
vt 0.682800 0.625117
vt 0.556466 0.620962
vt 0.764707 0.701745
vt 0.670477 0.716528
vt 0.565924 0.702504
vt 0.682419 0.716528
vt 0.786704 0.748079
vt 0.786655 0.852607
vt 0.658031 0.837056
vt 0.587774 0.718810
vt 0.555613 0.820841
vt 0.762898 0.952249
vt 0.654438 0.956503
vt 0.563550 0.926570
vt 0.016514 0.425761
vt 0.015084 0.348894
vt 0.806317 0.286561
vt 0.805953 0.217808
vt 0.856164 0.214689
vt 0.856371 0.287497
vt 0.806557 0.363433
vt 0.856503 0.361654
vt 0.015695 0.278483
vt 0.013864 0.202596
vt 0.806363 0.433843
vt 0.856413 0.435595
vt 0.805961 0.509733
vt 0.856244 0.509487
vt 0.920015 0.217564
vt 0.920914 0.286316
vt 0.919996 0.363191
vt 0.999802 0.286698
vt 0.989528 0.363229
vt 0.920978 0.433598
vt 0.920160 0.509488
vt 0.999891 0.433840
vt 0.989941 0.509282
vt 0.921578 0.573018
vt 0.856707 0.575437
vt 1.000000 0.573001
vt 0.989835 0.639733
vt 0.922490 0.644347
vt 0.858448 0.641747
vt 0.806190 0.573265
vt 0.811076 0.644585
vt 0.015409 0.139062
vt 0.020122 0.067755
vt 0.975435 0.707441
vt 0.875524 0.706871
vt 0.289695 0.716529
vt 0.289574 0.806157
vt 0.229816 0.745549
vt 0.046783 0.788058
vt 0.000000 0.742840
vt 0.046778 0.716529
vt 0.015535 0.494514
vt 0.018038 0.564700
vt 0.856624 0.148608
vt 0.858456 0.080511
vt 0.921368 0.147371
vt 0.989744 0.217981
vt 0.999714 0.149186
vt 0.922141 0.072305
vt 0.791059 0.012392
vt 0.875339 0.000000
vt 0.023750 0.639787
vt 0.975066 0.011999
vt 0.987673 0.084207
vt 0.783530 0.557950
vt 0.783616 0.525998
vt 0.784287 0.416582
vt 0.784477 0.380567
vt 0.784022 0.269346
vt 0.783778 0.233798
vn -0.015360 0.847558 0.530481
vn 0.920495 -0.206438 0.331771
vn -0.015361 -0.847558 0.530481
vn 0.920495 0.206437 0.331771
vn 0.893873 0.258854 0.366041
vn 0.020284 0.829241 0.558523
vn 0.893873 -0.258855 0.366040
vn 0.867581 -0.291333 0.403023
vn 0.011661 0.826759 0.562436
vn 0.871703 -0.284521 0.398975
vn 0.011874 0.826649 0.562593
vn 0.867582 0.291332 0.403023
vn 0.871703 0.284521 0.398976
vn -0.795974 -0.379202 0.471838
vn -0.795974 0.379203 0.471838
vn -0.858322 -0.275248 0.433038
vn -0.858322 0.275249 0.433038
vn -0.053007 -0.967240 0.248269
vn -0.053006 0.967240 0.248268
vn -0.033250 0.960467 0.276399
vn -0.033250 -0.960468 0.276399
vn -0.873308 0.265120 0.408711
vn -0.873308 -0.265119 0.408711
vn -0.016399 -0.961416 0.274610
vn -0.026948 -0.960546 0.276813
vn -0.016398 0.961416 0.274610
vn -0.026947 0.960546 0.276814
vn -0.873047 -0.256371 0.414805
vn -0.873047 0.256372 0.414805
vn 0.001973 -0.411472 0.911420
vn 0.001974 0.411472 0.911421
vn 0.019048 0.432831 0.901274
vn 0.019047 -0.432832 0.901273
vn 0.013430 -0.441172 0.897322
vn 0.027852 -0.439346 0.897886
vn 0.013430 0.441171 0.897322
vn 0.027852 0.439346 0.897886
vn 0.004547 0.000000 -0.999969
vn 0.002503 -0.717429 -0.696585
vn -0.000427 -0.718955 -0.695029
vn -0.000397 0.000000 -0.999969
vn 0.002503 0.717429 -0.696585
vn -0.000427 0.718955 -0.695029
vn -0.003876 -0.717521 -0.696493
vn -0.005829 0.000000 -0.999969
vn -0.003876 0.717521 -0.696493
vn 0.001923 -0.999634 0.026307
vn -0.000397 -0.999603 0.027131
vn -0.005158 -0.999573 0.027741
vn 0.001923 0.999634 0.026307
vn -0.000397 0.999603 0.027131
vn -0.005158 0.999573 0.027741
vn 0.194189 -0.700613 -0.686575
vn 0.181677 -0.983337 0.005615
vn 0.744591 -0.475631 -0.468276
vn 0.810419 -0.585833 0.000885
vn 0.148381 -0.763817 0.628101
vn 0.741935 -0.462996 0.484878
vn 0.181677 0.983337 0.005615
vn 0.194189 0.700613 -0.686575
vn 0.148381 0.763817 0.628101
vn 0.741935 0.462996 0.484878
vn 0.810419 0.585833 0.000885
vn 0.744591 0.475631 -0.468276
vn 0.184881 0.000000 -0.982757
vn 0.806635 0.000000 -0.591021
vn 0.825861 0.000000 0.563860
vn 0.999847 0.000000 0.016938
vn -0.166753 0.704367 -0.689932
vn -0.161779 0.986663 0.016358
vn -0.621387 0.557695 -0.550279
vn -0.738670 0.673971 0.008789
vn -0.268838 0.846675 0.459151
vn -0.612964 0.560717 0.556627
vn -0.161779 -0.986663 0.016358
vn -0.166753 -0.704367 -0.689932
vn -0.268838 -0.846675 0.459151
vn -0.612964 -0.560717 0.556627
vn -0.738670 -0.673971 0.008789
vn -0.621387 -0.557695 -0.550279
vn -0.165410 0.000000 -0.986206
vn -0.739616 0.000000 -0.672994
vn -0.758782 0.000000 0.651295
vn -0.999878 0.000000 0.013916
vn -0.122440 0.852077 0.508866
vn 0.081515 0.871670 0.483200
vn 0.243171 0.238899 0.940092
vn -0.239540 0.229713 0.943297
vn -0.249702 0.219428 0.943114
vn -0.005768 0.000000 0.999969
vn 0.004120 0.000000 0.999969
vn -0.000275 0.000000 0.999969
vn -0.133213 0.851985 0.506302
vn 0.070864 0.872219 0.483932
vn 0.233955 0.240242 0.942076
vn -0.243416 0.217811 0.945128
vn -0.004913 0.000000 0.999969
vn 0.003693 0.000000 0.999969
vn -0.249702 -0.219428 0.943114
vn 0.243171 -0.238899 0.940092
vn -0.239540 -0.229713 0.943297
vn 0.081515 -0.871670 0.483200
vn -0.122440 -0.852077 0.508866
vn 0.233955 -0.240242 0.942076
vn -0.243416 -0.217811 0.945128
vn 0.070864 -0.872219 0.483932
vn -0.133213 -0.851985 0.506302
vn -0.124516 -0.853114 0.506607
vn -0.124516 0.853114 0.506607
vn 0.271737 -0.200720 0.941191
vn 0.048524 0.000000 0.998810
vn 0.074587 -0.873653 0.480758
vn 0.210211 -0.329753 0.920347
vn 0.278176 0.000000 0.960509
vn 0.271737 0.200720 0.941191
vn 0.210211 0.329753 0.920347
vn 0.074587 0.873653 0.480758
vn 0.059633 0.880398 0.470412
vn 0.226478 0.189459 0.955382
vn -0.049837 0.000000 0.998749
vn -0.389019 0.214331 0.895932
vn -0.231147 0.000000 0.972900
vn 0.226478 -0.189459 0.955382
vn 0.059633 -0.880398 0.470412
vn -0.389019 -0.214331 0.895932
vn 0.431959 -0.174963 0.884732
vn -0.387768 -0.180151 0.903958
vn 0.404736 -0.167394 0.898953
vn -0.382702 -0.173101 0.907468
vn 0.410413 -0.171697 0.895566
vn -0.392376 -0.170751 0.903775
s off
f 88/1/1 80/2/1 89/3/1
f 88/1/1 89/3/1 90/4/1
f 70/5/2 88/6/2 90/7/2
f 70/5/2 90/7/2 91/8/2
f 78/9/3 87/10/3 93/11/3
f 78/9/3 93/11/3 92/12/3
f 87/13/4 69/14/4 94/15/4
f 87/13/4 94/15/4 93/16/4
f 86/17/5 68/18/5 95/19/5
f 86/17/5 95/19/5 96/20/5
f 85/21/6 60/22/6 98/23/6
f 85/21/6 98/23/6 99/24/6
f 67/25/7 85/26/7 99/27/7
f 67/25/7 99/27/7 100/28/7
f 63/29/8 84/30/8 102/31/8
f 63/29/8 102/31/8 101/32/8
f 84/33/9 74/34/9 103/35/9
f 84/33/9 103/35/9 102/36/9
f 64/37/10 83/38/10 105/39/10
f 64/37/10 105/39/10 104/40/10
f 83/41/11 65/42/11 106/43/11
f 83/41/11 106/43/11 105/44/11
f 82/45/12 61/46/12 107/47/12
f 82/45/12 107/47/12 108/48/12
f 81/49/13 62/50/13 110/51/13
f 81/49/13 110/51/13 111/52/13
f 80/53/14 39/54/14 113/55/14
f 80/53/14 113/55/14 89/56/14
f 37/57/15 78/58/15 92/59/15
f 37/57/15 92/59/15 114/60/15
f 74/61/16 27/62/16 115/63/16
f 74/61/16 115/63/16 103/64/16
f 26/65/17 72/66/17 109/67/17
f 26/65/17 109/67/17 116/68/17
f 39/69/18 70/70/18 91/71/18
f 39/69/18 91/71/18 113/72/18
f 69/73/19 37/74/19 114/75/19
f 69/73/19 114/75/19 94/76/19
f 68/77/20 5/78/20 117/79/20
f 68/77/20 117/79/20 95/80/20
f 6/81/21 67/82/21 100/83/21
f 6/81/21 100/83/21 118/84/21
f 8/85/22 66/86/22 112/87/22
f 8/85/22 112/87/22 119/88/22
f 65/89/23 7/90/23 120/91/23
f 65/89/23 120/91/23 106/92/23
f 7/93/24 64/94/24 104/95/24
f 7/93/24 104/95/24 120/96/24
f 27/97/25 63/98/25 101/99/25
f 27/97/25 101/99/25 115/100/25
f 62/101/26 8/102/26 119/103/26
f 62/101/26 119/103/26 110/104/26
f 61/105/27 26/106/27 116/107/27
f 61/105/27 116/107/27 107/108/27
f 60/109/28 6/110/28 118/111/28
f 60/109/28 118/111/28 98/112/28
f 5/113/29 59/114/29 97/115/29
f 5/113/29 97/115/29 117/116/29
f 91/117/30 90/118/30 89/119/30
f 91/117/30 89/119/30 113/120/30
f 93/121/31 94/76/31 114/75/31
f 93/121/31 114/75/31 92/122/31
f 117/79/32 97/123/32 96/124/32
f 117/79/32 96/124/32 95/80/32
f 98/125/33 118/126/33 100/127/33
f 98/125/33 100/127/33 99/128/33
f 102/129/34 103/130/34 115/131/34
f 102/129/34 115/131/34 101/132/34
f 105/133/35 106/134/35 120/135/35
f 105/133/35 120/135/35 104/136/35
f 107/108/36 116/107/36 109/137/36
f 107/108/36 109/137/36 108/138/36
f 110/104/37 119/103/37 112/139/37
f 110/104/37 112/139/37 111/140/37
s 1
f 17/141/38 2/142/39 20/143/40
f 17/141/38 20/143/40 45/144/41
f 1/145/42 17/141/38 45/144/41
f 1/145/42 45/144/41 18/146/43
f 45/144/41 20/143/40 3/147/44
f 45/144/41 3/147/44 22/148/45
f 18/146/43 45/144/41 22/148/45
f 18/146/43 22/148/45 4/149/46
f 2/150/39 21/151/47 47/152/48
f 2/150/39 47/152/48 20/153/40
f 20/153/40 47/152/48 23/154/49
f 20/153/40 23/154/49 3/155/44
f 19/156/50 1/157/42 18/158/43
f 19/156/50 18/158/43 48/159/51
f 48/159/51 18/158/43 4/160/46
f 48/159/51 4/160/46 24/161/52
f 21/151/47 2/150/39 32/162/53
f 21/151/47 32/162/53 50/163/54
f 50/163/54 32/162/53 11/164/55
f 50/163/54 11/164/55 33/165/56
f 29/166/57 50/163/54 33/165/56
f 29/166/57 33/165/56 10/167/58
f 1/157/42 19/156/50 51/168/59
f 1/157/42 51/168/59 35/169/60
f 51/168/59 31/170/61 9/171/62
f 51/168/59 9/171/62 34/172/63
f 35/169/60 51/168/59 34/172/63
f 35/169/60 34/172/63 12/173/64
f 17/141/38 1/145/42 35/174/60
f 17/141/38 35/174/60 52/175/65
f 2/142/39 17/141/38 52/175/65
f 2/142/39 52/175/65 32/176/53
f 52/175/65 35/174/60 12/177/64
f 52/175/65 12/177/64 36/178/66
f 32/176/53 52/175/65 36/178/66
f 32/176/53 36/178/66 11/179/55
f 34/180/63 9/181/62 30/182/67
f 34/180/63 30/182/67 53/183/68
f 12/184/64 34/180/63 53/183/68
f 12/184/64 53/183/68 36/185/66
f 53/183/68 30/182/67 10/186/58
f 53/183/68 10/186/58 33/187/56
f 36/185/66 53/183/68 33/187/56
f 36/185/66 33/187/56 11/188/55
f 24/161/52 4/160/46 40/189/69
f 24/161/52 40/189/69 55/190/70
f 55/190/70 40/189/69 15/191/71
f 55/190/70 15/191/71 41/192/72
f 37/74/73 55/190/70 41/192/72
f 37/74/73 41/192/72 14/193/74
f 3/155/44 23/154/49 56/194/75
f 3/155/44 56/194/75 43/195/76
f 56/194/75 39/69/77 13/196/78
f 56/194/75 13/196/78 42/197/79
f 43/195/76 56/194/75 42/197/79
f 43/195/76 42/197/79 16/198/80
f 22/148/45 3/147/44 43/199/76
f 22/148/45 43/199/76 57/200/81
f 4/149/46 22/148/45 57/200/81
f 4/149/46 57/200/81 40/201/69
f 57/200/81 43/199/76 16/202/80
f 57/200/81 16/202/80 44/203/82
f 40/201/69 57/200/81 44/203/82
f 40/201/69 44/203/82 15/204/71
f 42/205/79 13/206/78 38/207/83
f 42/205/79 38/207/83 58/208/84
f 16/209/80 42/205/79 58/208/84
f 16/209/80 58/208/84 44/210/82
f 58/208/84 38/207/83 14/211/74
f 58/208/84 14/211/74 41/212/72
f 44/210/82 58/208/84 41/212/72
f 44/210/82 41/212/72 15/213/71
f 26/106/85 62/101/86 81/214/87
f 26/106/85 81/214/87 72/215/88
f 81/216/87 66/217/89 28/218/90
f 81/216/87 28/218/90 71/219/91
f 72/220/88 81/216/87 71/219/91
f 72/220/88 71/219/91 46/221/92
f 5/78/93 61/105/94 82/222/95
f 5/78/93 82/222/95 59/223/96
f 82/224/95 72/220/88 46/221/92
f 82/224/95 46/221/92 73/225/97
f 59/226/96 82/224/95 73/225/97
f 59/226/96 73/225/97 25/227/98
f 71/219/91 28/218/90 65/228/99
f 71/219/91 65/228/99 83/229/100
f 46/221/92 71/219/91 83/229/100
f 46/221/92 83/229/100 74/230/101
f 74/230/101 83/229/100 64/231/102
f 74/230/101 64/231/102 27/232/103
f 73/225/97 46/221/92 74/230/101
f 73/225/97 74/230/101 84/233/104
f 25/227/98 73/225/97 84/233/104
f 25/227/98 84/233/104 60/234/105
f 60/234/105 84/233/104 63/235/106
f 60/234/105 63/235/106 6/236/107
f 63/98/106 47/152/48 21/151/47
f 6/81/107 63/98/106 21/151/47
f 63/98/106 27/97/103 47/152/48
f 64/94/102 23/154/49 47/152/48
f 27/97/103 64/94/102 47/152/48
f 64/94/102 7/93/108 23/154/49
f 61/105/94 19/156/50 48/159/51
f 26/106/85 61/105/94 48/159/51
f 61/105/94 5/78/93 19/156/50
f 62/101/86 48/159/51 24/161/52
f 8/102/109 62/101/86 24/161/52
f 62/101/86 26/106/85 48/159/51
f 25/227/98 60/234/105 85/237/110
f 25/227/98 85/237/110 76/238/111
f 85/237/110 67/239/112 29/240/57
f 85/237/110 29/240/57 75/241/113
f 76/238/111 85/237/110 75/241/113
f 76/238/111 75/241/113 49/242/114
f 59/226/96 25/227/98 76/238/111
f 59/226/96 76/238/111 86/243/115
f 86/243/115 76/238/111 49/242/114
f 86/243/115 49/242/114 77/244/116
f 68/77/117 86/245/115 77/246/116
f 68/77/117 77/246/116 31/170/61
f 75/241/113 10/247/58 30/248/67
f 49/242/114 75/241/113 30/248/67
f 75/241/113 29/240/57 10/247/58
f 77/249/116 30/250/67 9/251/62
f 31/170/61 77/246/116 9/171/62
f 77/252/116 49/253/114 30/254/67
f 67/82/112 21/151/47 50/163/54
f 29/166/57 67/82/112 50/163/54
f 67/82/112 6/81/107 21/151/47
f 68/77/117 51/168/59 19/156/50
f 5/78/93 68/77/117 19/156/50
f 68/77/117 31/170/61 51/168/59
f 66/255/89 8/102/109 69/73/118
f 66/255/89 69/73/118 87/256/119
f 28/218/90 66/217/89 87/10/119
f 28/218/90 87/10/119 79/257/120
f 79/257/120 87/10/119 78/9/121
f 79/257/120 78/9/121 54/258/122
f 65/228/99 28/218/90 79/257/120
f 65/228/99 79/257/120 88/259/123
f 7/260/108 65/228/99 88/259/123
f 7/260/108 88/259/123 70/261/124
f 88/259/123 79/257/120 54/258/122
f 88/259/123 54/258/122 80/262/125
f 78/9/121 14/263/74 38/264/83
f 54/258/122 78/9/121 38/264/83
f 78/265/121 37/74/73 14/193/74
f 80/262/125 38/264/83 13/266/78
f 39/267/77 80/262/125 13/266/78
f 80/262/125 54/258/122 38/264/83
f 69/73/118 24/161/52 55/190/70
f 37/74/73 69/73/118 55/190/70
f 69/73/118 8/102/109 24/161/52
f 70/70/124 56/194/75 23/154/49
f 7/93/108 70/70/124 23/154/49
f 70/70/124 39/69/77 56/194/75
f 59/226/96 86/243/115 96/268/126
f 59/226/96 96/268/126 97/269/127
f 72/220/88 82/224/95 108/270/128
f 72/220/88 108/270/128 109/271/129
f 66/217/89 81/216/87 111/272/130
f 66/217/89 111/272/130 112/273/131
