# Blender v2.62 (sub 0) OBJ File: 'cannon.blend'
# www.blender.org
v 1.233080 0.100765 -0.116072
v 1.232955 -0.107132 -0.116042
v 0.241448 -0.107132 -0.116042
v 0.241448 0.100739 -0.116042
v 1.232955 0.100739 0.121272
v 1.247791 -0.110242 0.124823
v 0.241447 -0.107132 0.121272
v 0.241448 0.100739 0.121272
v 1.311846 0.031470 -0.134925
v 1.311804 -0.037829 -0.134914
v 0.902556 0.117279 -0.134924
v 0.572012 0.117270 -0.134914
v 1.311846 0.117279 -0.036962
v 1.311804 0.117270 0.042153
v 0.902452 -0.123652 -0.134902
v 0.571950 -0.123652 -0.134902
v 1.317874 -0.124936 -0.035189
v 1.322819 -0.125973 0.045099
v 0.162650 -0.037842 -0.134902
v 0.162651 0.031449 -0.134902
v 0.162650 -0.123652 -0.036937
v 0.162650 -0.123652 0.042167
v 0.162651 0.117259 -0.036937
v 0.162651 0.117259 0.042167
v 1.317874 0.029917 0.058341
v 1.322819 -0.040410 0.059524
v 0.902452 0.117259 0.140132
v 0.571950 0.117259 0.140132
v 0.914697 -0.125972 0.142781
v 0.579249 -0.124935 0.141598
v 0.162650 -0.037842 0.140132
v 0.162650 0.031449 0.140132
v 0.945783 0.036971 -0.165980
v 0.945748 -0.043339 -0.165973
v 0.528732 0.036963 -0.165973
v 0.528711 -0.043344 -0.165968
v 0.933215 0.039545 0.089078
v 0.548141 0.040056 0.088590
v 0.937805 -0.048710 0.090001
v 0.551082 -0.047854 0.089118
v 1.444330 0.020491 -0.015656
v 1.446340 0.020275 0.012430
v 1.446504 -0.016234 -0.015439
v 1.450176 -0.016593 0.012767
v 0.950206 -0.151895 -0.041931
v 0.954288 -0.152668 0.050630
v 0.530894 -0.151432 -0.042636
v 0.533327 -0.151859 0.049531
v 0.032878 -0.046911 -0.043224
v 0.032878 -0.046911 0.048454
v 0.032878 0.040518 -0.043224
v 0.032878 0.040518 0.048454
v 0.945748 0.144475 0.048443
v 0.945783 0.144481 -0.043242
v 0.528711 0.144471 0.048449
v 0.528732 0.144474 -0.043233
v 2.017828 0.028589 -0.020986
v 2.020002 -0.008136 -0.020769
v 2.023674 -0.008495 0.007437
v 2.019837 0.028372 0.007100
v 1.449361 0.024508 -0.005785
v 1.450031 0.024436 0.003577
v 1.450707 0.007918 0.015490
v 1.451986 -0.004372 0.015602
v 1.452460 -0.020385 -0.005480
v 1.453684 -0.020505 0.003922
v 1.450238 0.008277 -0.018309
v 1.450963 -0.003965 -0.018236
v 1.646644 0.025186 -0.019120
v 1.837810 0.027886 -0.020897
v 2.025257 0.016487 -0.023089
v 2.025982 0.004246 -0.023017
v 1.650489 -0.015545 -0.019288
v 1.841655 -0.012846 -0.021064
v 2.028780 -0.011202 -0.011397
v 2.030005 -0.011322 -0.001995
v 1.661788 -0.019308 0.014407
v 1.852954 -0.016608 0.012631
v 2.029575 0.003848 0.009381
v 2.028297 0.016138 0.009269
v 1.656657 0.028909 0.013909
v 1.847823 0.031609 0.012132
v 2.025501 0.031652 -0.011728
v 2.026171 0.031580 -0.002366
v 1.655677 -0.001990 -0.022074
v 1.654396 0.011588 -0.022018
v 1.847414 0.000753 -0.023646
v 1.846132 0.014330 -0.023590
v 1.665091 -0.022500 0.004010
v 1.661324 -0.021246 -0.007221
v 1.857488 -0.019378 0.001986
v 1.853721 -0.018124 -0.009245
v 1.664503 0.012790 0.017659
v 1.666214 -0.003282 0.017825
v 1.857521 0.015545 0.015479
v 1.859231 -0.000528 0.015645
v 1.656375 0.030919 -0.007294
v 1.659713 0.032160 0.003716
v 1.848696 0.033263 -0.009324
v 1.852034 0.034504 0.001685
v 2.038018 0.018200 -0.012435
v 2.039032 0.018083 -0.001649
v 2.039226 0.002628 -0.012309
v 2.040424 0.002495 -0.001510
vt 0.782816 0.768174
vt 0.722772 0.727478
vt 0.709230 0.496303
vt 0.778763 0.506091
vt 0.843793 0.767090
vt 0.849429 0.504828
vt 0.905702 0.724226
vt 0.921226 0.492514
vt 0.710788 0.275688
vt 0.780726 0.227716
vt 0.851389 0.226445
vt 0.922778 0.271877
vt 0.727448 0.065633
vt 0.788224 0.001106
vt 0.849194 0.000000
vt 0.910356 0.062316
vt 0.708470 1.298004
vt 0.694508 1.584074
vt 0.633324 1.654992
vt 0.641246 1.312582
vt 0.708151 1.009679
vt 0.640418 0.976706
vt 0.693551 0.719099
vt 0.631999 0.637476
vt 0.572326 1.654928
vt 0.563847 1.309997
vt 0.562708 0.972730
vt 0.570067 0.633237
vt 0.511514 1.583883
vt 0.495233 1.291588
vt 0.493980 0.999088
vt 0.507755 0.706384
vt 0.709128 0.640929
vt 0.624025 0.519942
vt 0.922231 0.821939
vt 0.837080 0.924146
vt 0.591561 0.516601
vt 0.494945 0.631445
vt 0.804762 0.926309
vt 0.709128 0.830847
vt 0.085108 1.136926
vt 0.015584 1.070377
vt 0.000000 0.777418
vt 0.080204 0.813010
vt 0.155797 1.132770
vt 0.161682 0.809653
vt 0.227651 1.057910
vt 0.244435 0.767346
vt 0.001767 0.482128
vt 0.082066 0.442453
vt 0.163184 0.440552
vt 0.245118 0.476426
vt 0.020883 0.184509
vt 0.090157 0.115668
vt 0.159764 0.115881
vt 0.229702 0.185149
vt 0.006528 0.113815
vt 0.087194 0.000000
vt 0.167864 0.000247
vt 0.248536 0.114558
vt 0.565743 1.757241
vt 0.642708 1.757322
vt 0.999752 0.080692
vt 1.000000 0.161408
vt 0.923025 0.161644
vt 0.922778 0.080928
vt 0.991520 0.000000
vt 0.930515 0.000187
vt 0.332647 1.764751
vt 0.251910 1.651075
vt 0.266792 1.579636
vt 0.336195 1.648269
vt 0.413337 1.764503
vt 0.405818 1.648055
vt 0.493980 1.650333
vt 0.475662 1.578995
vt 0.403610 0.636841
vt 0.473764 0.706424
vt 0.490625 0.996723
vt 0.409233 0.958128
vt 0.333978 0.637091
vt 0.328537 0.958407
vt 0.264868 0.707177
vt 0.248536 0.997558
vt 0.491258 1.287580
vt 0.410034 1.325106
vt 0.329341 1.325372
vt 0.249178 1.288378
vt 0.369758 0.518106
vt 0.377998 0.518669
vt 0.627807 0.515674
vt 0.840886 0.933105
vt 0.602279 0.515370
vt 0.613100 0.516484
vt 0.826225 0.926763
vt 0.815452 0.927484
vt 0.132510 1.249223
vt 0.124231 1.250278
vt 0.801379 0.936066
vt 0.588237 0.512486
vt 0.840154 1.057131
vt 0.828065 1.060859
vt 0.816110 1.061899
vt 0.804290 1.060251
vt 0.841574 1.183674
vt 0.829526 1.187900
vt 0.817572 1.188940
vt 0.805711 1.186794
vt 0.841341 1.303776
vt 0.830595 1.307721
vt 0.819822 1.308442
vt 0.809023 1.305938
vt 0.141410 1.243931
vt 0.144395 1.423483
vt 0.133585 1.433094
vt 0.123656 1.436402
vt 0.116573 1.247093
vt 0.114610 1.433407
vt 0.145644 1.591709
vt 0.135061 1.602396
vt 0.125133 1.605704
vt 0.115859 1.601633
vt 0.145156 1.748609
vt 0.136800 1.756368
vt 0.128521 1.757422
vt 0.120319 1.751772
vt 0.588944 0.332187
vt 0.603000 0.328746
vt 0.617153 0.330234
vt 0.631402 0.336648
vt 0.591161 0.165208
vt 0.605269 0.160104
vt 0.619422 0.161592
vt 0.633619 0.169669
vt 0.598210 0.015664
vt 0.609044 0.010759
vt 0.619865 0.011872
vt 0.630674 0.019006
vt 0.362068 0.521502
vt 0.360163 0.336185
vt 0.369055 0.333373
vt 0.378780 0.336316
vt 0.386787 0.523188
vt 0.389337 0.345017
vt 0.361295 0.167887
vt 0.370416 0.164068
vt 0.380141 0.167012
vt 0.390469 0.176719
vt 0.365463 0.016608
vt 0.373710 0.010915
vt 0.381950 0.011476
vt 0.390182 0.018294
vt 0.633624 0.012359
vt 0.621719 0.001212
vt 0.373359 0.000000
vt 0.382851 0.000859
vt 0.844278 1.314162
vt 0.832361 1.322327
vt 0.607994 0.000000
vt 0.832576 1.329195
vt 0.818858 1.330453
vt 0.818657 1.323453
vt 0.595847 0.009019
vt 0.137995 1.765308
vt 0.128486 1.766336
vt 0.806564 1.317225
vn 0.078052 -0.372418 -0.924777
vn 0.084538 -0.000160 -0.996420
vn 0.078026 0.372170 -0.924879
vn -0.000003 -0.360798 -0.932644
vn -0.000015 -0.000072 -1.000000
vn -0.000030 0.360696 -0.932683
vn -0.078057 -0.372320 -0.924816
vn -0.084566 -0.000016 -0.996418
vn -0.078082 0.372314 -0.924816
vn 0.052965 -0.252635 0.966111
vn -0.000963 -0.552186 0.833720
vn 0.034240 -0.591519 0.805564
vn 0.131375 0.005789 0.991316
vn -0.001763 0.008161 0.999965
vn 0.079301 0.018007 0.996688
vn 0.050669 0.258596 0.964656
vn -0.000888 0.563409 0.826178
vn 0.032794 0.612264 0.789973
vn 0.502251 0.191188 0.843321
vn 0.513896 0.645302 -0.565239
vn 0.528716 -0.141110 0.836987
vn 0.534487 -0.620155 -0.574222
vn 0.067298 -0.957293 0.281179
vn 0.072703 -0.997252 -0.014241
vn 0.070335 -0.949670 -0.305256
vn -0.003186 -0.960120 0.279569
vn -0.001499 -0.999978 -0.006450
vn -0.000319 -0.957185 -0.289477
vn -0.073404 -0.952594 0.295256
vn -0.075550 -0.997141 -0.001418
vn -0.070791 -0.952633 -0.295767
vn -0.408266 -0.686683 0.601486
vn -0.509011 -0.860760 0.000000
vn -0.408266 -0.686683 -0.601486
vn -0.576993 0.000000 0.816749
vn -1.000000 -0.000000 0.000000
vn -0.576992 0.000000 -0.816750
vn -0.408266 0.686683 0.601486
vn -0.509010 0.860761 0.000000
vn -0.408266 0.686683 -0.601486
vn 0.070433 0.953124 -0.294269
vn 0.074111 0.997250 0.000123
vn 0.070459 0.953058 0.294477
vn -0.000027 0.958688 -0.284461
vn -0.000013 1.000000 0.000055
vn -0.000003 0.958662 0.284547
vn -0.070485 0.953083 -0.294390
vn -0.074136 0.997248 0.000012
vn -0.070463 0.953083 0.294395
vn 0.558333 0.829611 -0.003204
vn 0.569380 0.626732 0.531991
vn 0.551446 0.635994 -0.539832
vn 0.312312 0.038418 0.949202
vn 0.375394 -0.261861 0.889105
vn 0.339158 0.337337 0.878166
vn 0.643323 0.004611 -0.765581
vn 0.620411 0.440969 -0.648565
vn 0.646173 -0.385089 -0.658913
vn 0.618207 -0.784251 -0.052638
vn 0.574755 -0.574187 -0.583065
vn 0.631516 -0.584828 0.509082
vn -0.021217 0.199445 -0.979679
vn -0.018427 -0.002076 -0.999828
vn -0.017067 -0.205225 -0.978566
vn -0.011350 0.195200 -0.980698
vn -0.008244 0.003337 -0.999960
vn -0.005859 -0.191634 -0.981449
vn -0.000336 0.183536 -0.983013
vn 0.003164 -0.000399 -0.999995
vn 0.006814 -0.185713 -0.982580
vn -0.005860 -0.914485 -0.404576
vn -0.007038 -0.997877 -0.064745
vn -0.011859 -0.939400 0.342619
vn 0.009522 -0.905068 -0.425160
vn 0.014895 -0.993150 -0.115892
vn 0.017333 -0.960255 0.278585
vn 0.028241 -0.920303 -0.390185
vn 0.041583 -0.996210 -0.076393
vn 0.052824 -0.954164 0.294585
vn -0.009677 -0.214091 0.976766
vn -0.010379 0.008723 0.999908
vn -0.015580 0.226231 0.973949
vn 0.012935 -0.200559 0.979596
vn 0.011127 0.011523 0.999872
vn 0.006940 0.218937 0.975714
vn 0.039859 -0.188281 0.981306
vn 0.036339 0.013640 0.999246
vn 0.033665 0.211977 0.976695
vn -0.037797 0.935706 0.350750
vn -0.034028 0.998140 -0.050579
vn -0.029713 0.919148 -0.392791
vn -0.009814 0.959298 0.282224
vn -0.013257 0.994059 -0.108030
vn -0.016093 0.908639 -0.417272
vn 0.024946 0.952021 0.305016
vn 0.011802 0.998153 -0.059595
vn -0.000265 0.926872 -0.375377
vn 0.571471 0.542551 0.615678
vn 0.726960 0.684529 -0.054315
vn 0.542708 0.497974 -0.676380
vn 0.707816 0.074141 0.702495
vn 0.991551 0.081859 -0.100625
vn 0.634190 0.038544 -0.772216
vn 0.632730 -0.453060 0.628005
vn 0.793238 -0.600205 -0.102603
vn 0.555108 -0.433420 -0.709931
s off
f 10/1/1 2/2/1 15/3/1
f 10/1/1 15/3/1 34/4/1
f 9/5/2 10/1/2 34/4/2
f 9/5/2 34/4/2 33/6/2
f 1/7/3 9/5/3 33/6/3
f 1/7/3 33/6/3 11/8/3
f 34/4/4 15/3/4 16/9/4
f 34/4/4 16/9/4 36/10/4
f 33/6/5 34/4/5 36/10/5
f 33/6/5 36/10/5 35/11/5
f 11/8/6 33/6/6 35/11/6
f 11/8/6 35/11/6 12/12/6
f 36/10/7 16/9/7 3/13/7
f 36/10/7 3/13/7 19/14/7
f 35/11/8 36/10/8 19/14/8
f 35/11/8 19/14/8 20/15/8
f 12/12/9 35/11/9 20/15/9
f 12/12/9 20/15/9 4/16/9
f 28/17/10 8/18/10 32/19/10
f 28/17/10 32/19/10 38/20/10
f 27/21/11 28/17/11 38/20/11
f 27/21/11 38/20/11 37/22/11
f 5/23/12 27/21/12 37/22/12
f 5/23/12 37/22/12 25/24/12
f 38/20/13 32/19/13 31/25/13
f 38/20/13 31/25/13 40/26/13
f 37/22/14 38/20/14 40/26/14
f 37/22/14 40/26/14 39/27/14
f 25/24/15 37/22/15 39/27/15
f 25/24/15 39/27/15 26/28/15
f 40/26/16 31/25/16 7/29/16
f 40/26/16 7/29/16 30/30/16
f 39/27/17 40/26/17 30/30/17
f 39/27/17 30/30/17 29/31/17
f 26/28/18 39/27/18 29/31/18
f 26/28/18 29/31/18 6/32/18
f 14/33/19 5/23/19 25/24/19
f 14/33/19 25/24/19 42/34/19
f 1/7/20 13/35/20 41/36/20
f 1/7/20 41/36/20 9/5/20
f 44/37/21 26/28/21 6/32/21
f 44/37/21 6/32/21 18/38/21
f 10/1/22 43/39/22 17/40/22
f 10/1/22 17/40/22 2/2/22
f 18/41/23 6/42/23 29/43/23
f 18/41/23 29/43/23 46/44/23
f 17/45/24 18/41/24 46/44/24
f 17/45/24 46/44/24 45/46/24
f 2/47/25 17/45/25 45/46/25
f 2/47/25 45/46/25 15/48/25
f 46/44/26 29/43/26 30/49/26
f 46/44/26 30/49/26 48/50/26
f 45/46/27 46/44/27 48/50/27
f 45/46/27 48/50/27 47/51/27
f 15/48/28 45/46/28 47/51/28
f 15/48/28 47/51/28 16/52/28
f 48/50/29 30/49/29 7/53/29
f 48/50/29 7/53/29 22/54/29
f 47/51/30 48/50/30 22/54/30
f 47/51/30 22/54/30 21/55/30
f 16/52/31 47/51/31 21/55/31
f 16/52/31 21/55/31 3/56/31
f 22/54/32 7/53/32 31/57/32
f 22/54/32 31/57/32 50/58/32
f 21/55/33 22/54/33 50/58/33
f 21/55/33 50/58/33 49/59/33
f 3/56/34 21/55/34 49/59/34
f 3/56/34 49/59/34 19/60/34
f 50/61/35 31/25/35 32/19/35
f 50/61/35 32/19/35 52/62/35
f 49/63/36 50/64/36 52/65/36
f 49/63/36 52/65/36 51/66/36
f 19/67/37 49/63/37 51/66/37
f 19/67/37 51/66/37 20/68/37
f 52/69/38 32/70/38 8/71/38
f 52/69/38 8/71/38 24/72/38
f 51/73/39 52/69/39 24/72/39
f 51/73/39 24/72/39 23/74/39
f 20/75/40 51/73/40 23/74/40
f 20/75/40 23/74/40 4/76/40
f 13/77/41 1/78/41 11/79/41
f 13/77/41 11/79/41 54/80/41
f 14/81/42 13/77/42 54/80/42
f 14/81/42 54/80/42 53/82/42
f 5/83/43 14/81/43 53/82/43
f 5/83/43 53/82/43 27/84/43
f 54/80/44 11/79/44 12/85/44
f 54/80/44 12/85/44 56/86/44
f 53/82/45 54/80/45 56/86/45
f 53/82/45 56/86/45 55/87/45
f 27/84/46 53/82/46 55/87/46
f 27/84/46 55/87/46 28/88/46
f 56/86/47 12/85/47 4/76/47
f 56/86/47 4/76/47 23/74/47
f 55/87/48 56/86/48 23/74/48
f 55/87/48 23/74/48 24/72/48
f 28/88/49 55/87/49 24/72/49
f 28/88/49 24/72/49 8/71/49
f 62/89/50 61/90/50 13/77/50
f 62/89/50 13/77/50 14/81/50
f 42/34/51 62/91/51 14/33/51
f 61/92/52 41/36/52 13/35/52
f 64/93/53 63/94/53 25/24/53
f 64/93/53 25/24/53 26/28/53
f 44/37/54 64/93/54 26/28/54
f 63/94/55 42/34/55 25/24/55
f 67/95/56 68/96/56 10/1/56
f 67/95/56 10/1/56 9/5/56
f 41/36/57 67/95/57 9/5/57
f 68/96/58 43/39/58 10/1/58
f 65/97/59 66/98/59 18/41/59
f 65/97/59 18/41/59 17/45/59
f 43/39/60 65/99/60 17/40/60
f 66/100/61 44/37/61 18/38/61
f 67/95/62 41/36/62 69/101/62
f 67/95/62 69/101/62 86/102/62
f 68/96/63 67/95/63 86/102/63
f 68/96/63 86/102/63 85/103/63
f 43/39/64 68/96/64 85/103/64
f 43/39/64 85/103/64 73/104/64
f 86/102/65 69/101/65 70/105/65
f 86/102/65 70/105/65 88/106/65
f 85/103/66 86/102/66 88/106/66
f 85/103/66 88/106/66 87/107/66
f 73/104/67 85/103/67 87/107/67
f 73/104/67 87/107/67 74/108/67
f 88/106/68 70/105/68 57/109/68
f 88/106/68 57/109/68 71/110/68
f 87/107/69 88/106/69 71/110/69
f 87/107/69 71/110/69 72/111/69
f 74/108/70 87/107/70 72/111/70
f 74/108/70 72/111/70 58/112/70
f 65/97/71 43/113/71 73/114/71
f 65/97/71 73/114/71 90/115/71
f 66/98/72 65/97/72 90/115/72
f 66/98/72 90/115/72 89/116/72
f 44/117/73 66/98/73 89/116/73
f 44/117/73 89/116/73 77/118/73
f 90/115/74 73/114/74 74/119/74
f 90/115/74 74/119/74 92/120/74
f 89/116/75 90/115/75 92/120/75
f 89/116/75 92/120/75 91/121/75
f 77/118/76 89/116/76 91/121/76
f 77/118/76 91/121/76 78/122/76
f 92/120/77 74/119/77 58/123/77
f 92/120/77 58/123/77 75/124/77
f 91/121/78 92/120/78 75/124/78
f 91/121/78 75/124/78 76/125/78
f 78/122/79 91/121/79 76/125/79
f 78/122/79 76/125/79 59/126/79
f 64/93/80 44/37/80 77/127/80
f 64/93/80 77/127/80 94/128/80
f 63/94/81 64/93/81 94/128/81
f 63/94/81 94/128/81 93/129/81
f 42/34/82 63/94/82 93/129/82
f 42/34/82 93/129/82 81/130/82
f 94/128/83 77/127/83 78/131/83
f 94/128/83 78/131/83 96/132/83
f 93/129/84 94/128/84 96/132/84
f 93/129/84 96/132/84 95/133/84
f 81/130/85 93/129/85 95/133/85
f 81/130/85 95/133/85 82/134/85
f 96/132/86 78/131/86 59/135/86
f 96/132/86 59/135/86 79/136/86
f 95/133/87 96/132/87 79/136/87
f 95/133/87 79/136/87 80/137/87
f 82/134/88 95/133/88 80/137/88
f 82/134/88 80/137/88 60/138/88
f 62/89/89 42/139/89 81/140/89
f 62/89/89 81/140/89 98/141/89
f 61/90/90 62/89/90 98/141/90
f 61/90/90 98/141/90 97/142/90
f 41/143/91 61/90/91 97/142/91
f 41/143/91 97/142/91 69/144/91
f 98/141/92 81/140/92 82/145/92
f 98/141/92 82/145/92 100/146/92
f 97/142/93 98/141/93 100/146/93
f 97/142/93 100/146/93 99/147/93
f 69/144/94 97/142/94 99/147/94
f 69/144/94 99/147/94 70/148/94
f 100/146/95 82/145/95 60/149/95
f 100/146/95 60/149/95 84/150/95
f 99/147/96 100/146/96 84/150/96
f 99/147/96 84/150/96 83/151/96
f 70/148/97 99/147/97 83/151/97
f 70/148/97 83/151/97 57/152/97
f 84/153/98 60/138/98 80/137/98
f 84/153/98 80/137/98 102/154/98
f 83/151/99 84/150/99 102/155/99
f 83/151/99 102/155/99 101/156/99
f 57/109/100 83/157/100 101/158/100
f 57/109/100 101/158/100 71/110/100
f 102/154/101 80/137/101 79/136/101
f 102/154/101 79/136/101 104/159/101
f 101/158/102 102/160/102 104/161/102
f 101/158/102 104/161/102 103/162/102
f 71/110/103 101/158/103 103/162/103
f 71/110/103 103/162/103 72/111/103
f 104/159/104 79/136/104 59/135/104
f 104/159/104 59/135/104 76/163/104
f 103/164/105 104/165/105 76/125/105
f 103/164/105 76/125/105 75/124/105
f 72/111/106 103/162/106 75/166/106
f 72/111/106 75/166/106 58/112/106
