# Blender v2.62 (sub 0) OBJ File: 'cockpit.blend'
# www.blender.org
v -1.748126 -0.681113 -0.564619
v -1.748124 0.681115 -0.564619
v 0.267664 0.687218 -0.560540
v 0.267662 -0.687220 -0.560541
v -1.745868 -0.676454 0.595581
v -1.745866 0.676457 0.595580
v 0.267664 0.687219 0.439907
v 0.267662 -0.687219 0.439911
v 1.945760 -1.000004 0.126678
v 1.945760 -0.980789 -0.068412
v 1.945760 -0.923884 -0.256006
v 1.945760 -0.831474 -0.428892
v 1.945760 -0.707111 -0.580429
v 1.945760 -0.555574 -0.704792
v 1.945760 -0.382687 -0.797202
v 1.945760 -0.195094 -0.854107
v 1.945760 -0.000004 -0.873322
v 1.945761 0.195086 -0.854107
v 1.945761 0.382679 -0.797202
v 1.945761 0.555566 -0.704792
v 1.945762 0.707103 -0.580429
v 1.945762 0.831466 -0.428892
v 1.945762 0.923876 -0.256005
v 1.945763 0.980781 -0.068412
v 1.945763 0.999996 0.126678
v 1.945763 0.980781 0.218395
v 1.945763 0.923875 0.250968
v 1.945763 0.831465 0.282768
v 1.945763 0.707102 0.326076
v 1.945762 0.555566 0.322321
v 1.945762 0.382679 0.319531
v 1.945762 0.195085 0.317813
v 1.945762 -0.000005 0.317232
v 1.945762 -0.195095 0.317813
v 1.945761 -0.382689 0.319531
v 1.945761 -0.555575 0.322321
v 1.945761 -0.707112 0.326076
v 1.945760 -0.831474 0.282769
v 1.945760 -0.923884 0.250968
v 1.945760 -0.980790 0.218395
v -0.014747 -0.919709 0.108260
v -0.014746 -0.000001 -0.793028
v -0.014745 0.919706 0.108260
v -0.014745 0.000000 0.969077
v 2.935041 -0.000005 -0.508884
v -1.074612 0.918567 -0.791888
v -1.840289 0.000001 -0.649802
v -1.074615 -0.918567 -0.791889
v -1.835766 0.000001 0.778243
v -1.074611 0.918567 0.631732
v -1.074615 -0.918567 0.631733
v -1.838549 0.770726 0.061503
v -1.838551 -0.770723 0.061503
v -1.075118 -0.000000 -0.873321
v -1.075118 0.000000 1.066284
v -2.075792 0.000002 0.126679
v -1.075117 1.000000 0.096481
v -0.075792 -0.000002 0.126679
v -1.075120 -1.000000 0.096481
v -1.488800 0.769090 -0.648152
v -1.807576 -0.412653 -0.619491
v -1.807575 0.412655 -0.619491
v -1.488803 -0.769089 -0.648152
v -1.804890 -0.410043 0.699765
v -1.804888 0.410046 0.699765
v -1.486846 0.764008 0.633305
v -1.486849 -0.764006 0.633305
v -1.806991 0.739268 -0.311224
v -1.804837 0.733610 0.383356
v -1.806993 -0.739266 -0.311224
v -1.804840 -0.733608 0.383356
v -1.068707 0.519928 -0.905299
v -1.606483 0.000001 -0.922495
v -1.068709 -0.519928 -0.905299
v -1.065471 -0.513332 0.953243
v -1.592976 0.000001 1.117955
v -1.065469 0.513333 0.953243
v -1.986577 0.000002 0.469305
v -1.987638 -0.429107 0.077791
v -1.988902 0.000001 -0.311839
v -1.987637 0.429110 0.077791
v -1.071852 0.998045 0.387317
v -1.606134 1.049340 0.099535
v -1.068576 1.034917 -0.405912
v -1.068579 -1.034917 -0.405912
v -1.606138 -1.049338 0.099535
v -1.071855 -0.998045 0.387318
v -1.514092 0.442832 -0.796464
v -1.514093 -0.442831 -0.796464
v -1.509299 -0.439517 0.866802
v -1.509297 0.439519 0.866802
v -1.943149 -0.420278 0.431968
v -1.945262 -0.422756 -0.315397
v -1.943148 0.420281 0.431968
v -1.945261 0.422758 -0.315397
v -1.512987 0.909225 0.383586
v -1.513847 0.921692 -0.332616
v -1.513850 -0.921691 -0.332616
v -1.512990 -0.909223 0.383586
vt 0.106687 0.557884
vt 0.037325 0.314211
vt 0.113815 0.258937
vt 0.134186 0.557215
vt 0.230892 0.309404
vt 0.161638 0.556520
vt 0.880372 0.157414
vt 0.923298 0.213897
vt 1.000000 0.274841
vt 0.878188 0.258058
vt 0.777626 0.200451
vt 0.743424 0.251159
vt 0.914760 0.372094
vt 0.868945 0.369130
vt 0.769087 0.358648
vt 0.734768 0.693838
vt 0.609696 0.554827
vt 0.638108 0.555037
vt 0.666764 0.554980
vt 0.694564 0.554656
vt 0.720439 0.554080
vt 0.743394 0.553272
vt 0.473465 0.000000
vt 0.540973 0.154450
vt 0.520051 0.152618
vt 0.495761 0.150196
vt 0.469035 0.147277
vt 0.440902 0.143973
vt 0.412442 0.140411
vt 0.384749 0.136728
vt 0.358888 0.133065
vt 0.743854 0.518885
vt 0.751561 0.348029
vt 0.774398 0.335751
vt 0.800146 0.327438
vt 0.827814 0.323410
vt 0.856340 0.323820
vt 0.869576 0.327264
vt 0.873965 0.334252
vt 0.878021 0.345316
vt 0.883555 0.360212
vt 0.164293 0.719041
vt 0.034249 0.559487
vt 0.055740 0.559042
vt 0.080199 0.558501
vt 0.187989 0.555824
vt 0.212226 0.555156
vt 0.233417 0.554541
vt 0.252659 0.555091
vt 0.266941 0.555492
vt 0.276255 0.556034
vt 0.597321 0.554537
vt 0.615282 0.267626
vt 0.718451 0.308518
vt 0.524038 0.398735
vt 0.430857 0.431105
vt 0.330795 0.376814
vt 0.335851 0.129564
vt 0.316525 0.126358
vt 0.301652 0.123571
vt 0.000000 0.562894
vt 0.006715 0.561954
vt 0.018461 0.560907
vt 0.277671 0.275307
vt 0.282618 0.558053
vt 0.334260 0.683073
vt 0.295573 0.669610
vt 0.290925 0.631395
vt 0.341775 0.641755
vt 0.392800 0.694707
vt 0.406992 0.663494
vt 0.282618 0.570317
vt 0.342927 0.576954
vt 0.414741 0.585857
vt 0.450296 0.696236
vt 0.466297 0.655881
vt 0.487099 0.691337
vt 0.507189 0.655927
vt 0.489128 0.593539
vt 0.540915 0.599618
vt 0.189756 0.105590
vt 0.112981 0.103419
vt 0.259675 0.110167
vt 0.239028 0.051072
vt 0.184082 0.043648
vt 0.228946 0.014788
vt 0.187441 0.004816
vt 0.112407 0.027372
vt 0.126651 0.000000
vt 0.045168 0.109181
vt 0.000945 0.116592
vt 0.060284 0.046722
vt 0.594262 0.894219
vt 0.540973 0.885040
vt 0.572161 0.817807
vt 0.601498 0.836552
vt 0.023833 0.056416
vt 0.602809 0.769759
vt 0.613290 0.796022
vt 0.657643 0.984458
vt 0.625354 0.976517
vt 0.608811 0.945962
vt 0.650044 0.951458
vt 0.705262 0.986632
vt 0.702280 0.950011
vt 0.641582 0.898476
vt 0.692791 0.898636
vt 0.758593 0.975092
vt 0.758630 0.940886
vt 0.793912 0.960155
vt 0.800455 0.927005
vt 0.755055 0.887088
vt 0.801710 0.873416
vt 0.642549 0.839317
vt 0.694627 0.835514
vt 0.644560 0.788713
vt 0.691516 0.780984
vt 0.751090 0.828084
vt 0.793095 0.816898
vt 0.745408 0.777838
vt 0.781764 0.778417
vt 0.638204 0.748229
vt 0.679721 0.730790
vt 0.594941 0.725021
vt 0.629680 0.710651
vt 0.901996 0.000000
vt 0.941193 0.028278
vt 0.936165 0.057572
vt 0.893874 0.053146
vt 0.742110 0.736051
vt 0.788884 0.750291
vt 0.836998 0.017141
vt 0.820848 0.042961
vt 0.744487 0.693838
vt 0.801673 0.704019
vt 0.971298 0.069758
vt 0.764008 0.050625
vt 0.681370 0.005053
vt 0.719423 0.013710
vt 0.728219 0.052372
vt 0.678042 0.049191
vt 0.627274 0.000000
vt 0.612156 0.035804
vt 0.743424 0.114202
vt 0.684488 0.115197
vt 0.614259 0.113128
vt 0.582792 0.004117
vt 0.576626 0.047982
vt 0.554594 0.011984
vt 0.546162 0.050387
vt 0.572967 0.113085
vt 0.540973 0.111717
vt 0.576178 0.306772
vn 0.243369 0.439967 0.864407
vn 0.243367 -0.439966 0.864409
vn 0.897334 -0.301597 -0.322228
vn 0.942851 -0.233225 0.237989
vn 0.897335 0.301594 -0.322229
vn 0.942851 0.233222 0.237989
vn 0.977386 0.000000 -0.211341
vn 0.373150 -0.921506 0.107486
vn 0.320261 -0.919004 -0.229835
vn 0.288888 -0.891263 -0.349528
vn 0.271279 -0.808222 -0.522629
vn 0.242988 -0.692953 -0.678762
vn 0.206244 -0.547685 -0.810846
vn 0.164098 -0.376843 -0.911588
vn 0.145695 -0.246040 -0.958220
vn 0.147404 0.000000 -0.989074
vn 0.145695 0.246040 -0.958220
vn 0.164098 0.376843 -0.911588
vn 0.206244 0.547685 -0.810846
vn 0.242988 0.692953 -0.678762
vn 0.271279 0.808222 -0.522629
vn 0.288888 0.891263 -0.349528
vn 0.320261 0.919004 -0.229835
vn 0.373150 0.921506 0.107486
vn 0.372265 0.691641 0.618854
vn 0.414350 0.387341 0.823542
vn 0.417432 0.297037 0.858760
vn 0.391064 0.158300 0.906613
vn 0.371136 -0.019318 0.928343
vn 0.372753 -0.011780 0.927854
vn 0.430525 0.132878 0.892727
vn 0.476577 0.000000 0.879116
vn 0.430525 -0.132878 0.892727
vn 0.372753 0.011780 0.927824
vn 0.371136 0.019318 0.928343
vn 0.391064 -0.158300 0.906613
vn 0.417432 -0.297037 0.858760
vn 0.414350 -0.387341 0.823542
vn 0.372265 -0.691641 0.618854
vn 0.475204 -0.872311 0.114963
vn 0.401532 -0.646260 -0.648885
vn 0.480728 0.000000 -0.876858
vn 0.401532 0.646260 -0.648885
vn 0.475204 0.872311 0.114963
vn 0.480361 0.589496 0.649373
vn 0.480361 -0.589496 0.649373
vn -0.757012 0.254616 -0.601703
vn -0.640828 0.532456 -0.552965
vn -0.426588 0.631519 -0.647450
vn -0.371197 0.250313 -0.894162
vn -0.803247 0.000000 -0.595599
vn -0.395398 0.000000 -0.918485
vn -0.072329 0.700095 -0.710349
vn -0.026948 0.190710 -0.981262
vn 0.002960 0.000000 -0.999969
vn -0.757012 -0.254616 -0.601703
vn -0.371197 -0.250313 -0.894162
vn -0.640828 -0.532456 -0.552965
vn -0.426588 -0.631519 -0.647450
vn -0.026948 -0.190710 -0.981262
vn -0.072329 -0.700095 -0.710349
vn 0.014679 -0.478133 0.878140
vn 0.560381 0.000000 0.828211
vn 0.012665 0.000000 0.999908
vn -0.018891 -0.809107 0.587329
vn -0.325358 -0.711875 0.622364
vn -0.338603 -0.459548 0.821039
vn -0.583728 -0.584735 0.563280
vn -0.721397 -0.348308 0.598498
vn -0.394421 0.000000 0.918912
vn -0.800531 0.000000 0.599231
vn 0.014679 0.478133 0.878140
vn -0.018891 0.809107 0.587298
vn -0.338603 0.459548 0.821039
vn -0.721397 0.348308 0.598498
vn -0.325358 0.711875 0.622364
vn -0.583728 0.584735 0.563280
vn -0.730552 -0.599841 0.326273
vn -0.914090 -0.278451 0.294778
vn -0.805872 -0.591723 0.019745
vn -0.959075 -0.282907 0.010590
vn -0.944792 0.000000 0.327586
vn -0.999542 0.000000 0.029603
vn -0.757622 -0.592822 -0.272988
vn -0.935240 -0.243629 -0.256752
vn -0.959624 0.000000 -0.281259
vn -0.914090 0.278451 0.294778
vn -0.959075 0.282907 0.010590
vn -0.730552 0.599841 0.326273
vn -0.805872 0.591723 0.019745
vn -0.935240 0.243660 -0.256752
vn -0.757622 0.592853 -0.272988
vn -0.331614 0.871303 0.361675
vn -0.394208 0.916532 0.067324
vn 0.003693 0.963683 0.266945
vn 0.009003 0.998444 0.054567
vn -0.376019 0.888241 -0.263741
vn -0.029145 0.979766 -0.197974
vn -0.376019 -0.888241 -0.263741
vn -0.394208 -0.916532 0.067324
vn -0.029145 -0.979766 -0.197974
vn 0.008972 -0.998444 0.054567
vn -0.331614 -0.871303 0.361675
vn 0.003693 -0.963683 0.266945
s off
f 32/1/1 7/2/1 44/3/1
f 32/1/1 44/3/1 33/4/1
f 33/4/2 44/3/2 8/5/2
f 33/4/2 8/5/2 34/6/2
f 43/7/3 7/8/3 44/9/3
f 43/7/3 44/9/3 58/10/3
f 3/11/4 43/7/4 58/10/4
f 3/11/4 58/10/4 42/12/4
f 58/10/5 44/9/5 8/13/5
f 58/10/5 8/13/5 41/14/5
f 42/12/6 58/10/6 41/14/6
f 42/12/6 41/14/6 4/15/6
s 1
f 45/16/7 9/17/8 10/18/9
f 45/16/7 10/18/9 11/19/10
f 45/16/7 11/19/10 12/20/11
f 45/16/7 12/20/11 13/21/12
f 45/16/7 13/21/12 14/22/13
f 45/23/7 14/24/13 15/25/14
f 45/23/7 15/25/14 16/26/15
f 45/23/7 16/26/15 17/27/16
f 45/23/7 17/27/16 18/28/17
f 45/23/7 18/28/17 19/29/18
f 45/23/7 19/29/18 20/30/19
f 45/23/7 20/30/19 21/31/20
f 45/32/7 21/33/20 22/34/21
f 45/32/7 22/34/21 23/35/22
f 45/32/7 23/35/22 24/36/23
f 45/32/7 24/36/23 25/37/24
f 45/32/7 25/37/24 26/38/25
f 45/32/7 26/38/25 27/39/26
f 45/32/7 27/39/26 28/40/27
f 45/32/7 28/40/27 29/41/28
f 45/42/7 29/43/28 30/44/29
f 45/42/7 30/44/29 31/45/30
f 45/42/7 31/45/30 32/1/31
f 45/42/7 32/1/31 33/4/32
f 45/42/7 33/4/32 34/6/33
f 45/42/7 34/6/33 35/46/34
f 45/42/7 35/46/34 36/47/35
f 45/42/7 36/47/35 37/48/36
f 45/42/7 37/48/36 38/49/37
f 45/42/7 38/49/37 39/50/38
f 45/42/7 39/50/38 40/51/39
f 40/52/39 9/17/8 45/16/7
f 9/17/8 41/53/40 4/54/41
f 9/17/8 4/54/41 10/18/9
f 10/18/9 4/54/41 11/19/10
f 11/19/10 4/54/41 12/20/11
f 12/20/11 4/54/41 13/21/12
f 13/21/12 4/54/41 14/22/13
f 14/24/13 4/55/41 15/25/14
f 15/25/14 4/55/41 16/26/15
f 16/26/15 4/55/41 42/56/42
f 16/26/15 42/56/42 17/27/16
f 17/27/16 42/56/42 3/57/43
f 17/27/16 3/57/43 18/28/17
f 18/28/17 3/57/43 19/29/18
f 19/29/18 3/57/43 20/30/19
f 20/30/19 3/57/43 21/31/20
f 21/31/20 3/57/43 22/58/21
f 22/58/21 3/57/43 23/59/22
f 23/59/22 3/57/43 24/60/23
f 24/36/23 3/11/43 43/7/44
f 24/36/23 43/7/44 25/37/24
f 25/37/24 43/7/44 7/8/45
f 25/37/24 7/8/45 26/38/25
f 26/61/25 7/2/45 27/62/26
f 27/62/26 7/2/45 28/63/27
f 28/63/27 7/2/45 29/43/28
f 29/43/28 7/2/45 30/44/29
f 30/44/29 7/2/45 31/45/30
f 31/45/30 7/2/45 32/1/31
f 34/6/33 8/5/46 35/46/34
f 35/46/34 8/5/46 36/47/35
f 36/47/35 8/5/46 37/48/36
f 37/48/36 8/5/46 38/49/37
f 38/49/37 8/5/46 39/50/38
f 39/50/38 8/5/46 40/51/39
f 41/64/40 9/65/8 40/51/39
f 41/64/40 40/51/39 8/5/46
f 62/66/47 2/67/48 60/68/49
f 62/66/47 60/68/49 88/69/50
f 47/70/51 62/66/47 88/69/50
f 47/70/51 88/69/50 73/71/52
f 88/69/50 60/68/49 46/72/53
f 88/69/50 46/72/53 72/73/54
f 73/71/52 88/69/50 72/73/54
f 73/71/52 72/73/54 54/74/55
f 61/75/56 47/70/51 73/71/52
f 61/75/56 73/71/52 89/76/57
f 1/77/58 61/75/56 89/76/57
f 1/77/58 89/76/57 63/78/59
f 89/76/57 73/71/52 54/74/55
f 89/76/57 54/74/55 74/79/60
f 63/78/59 89/76/57 74/79/60
f 63/78/59 74/79/60 48/80/61
f 72/73/54 3/57/43 42/56/42
f 54/74/55 72/73/54 42/56/42
f 72/73/54 46/72/53 3/57/43
f 74/79/60 42/56/42 4/55/41
f 48/80/61 74/79/60 4/55/41
f 74/79/60 54/74/55 42/56/42
f 75/81/62 8/5/46 44/3/63
f 55/82/64 75/81/62 44/3/63
f 75/81/62 51/83/65 8/5/46
f 67/84/66 51/83/65 75/81/62
f 67/84/66 75/81/62 90/85/67
f 5/86/68 67/84/66 90/85/67
f 5/86/68 90/85/67 64/87/69
f 90/85/67 75/81/62 55/82/64
f 90/85/67 55/82/64 76/88/70
f 64/87/69 90/85/67 76/88/70
f 64/87/69 76/88/70 49/89/71
f 77/90/72 44/3/63 7/2/45
f 50/91/73 77/90/72 7/2/45
f 77/90/72 55/82/64 44/3/63
f 76/88/70 55/82/64 77/90/72
f 76/88/70 77/90/72 91/92/74
f 49/93/71 76/94/70 91/95/74
f 49/93/71 91/95/74 65/96/75
f 91/92/74 77/90/72 50/91/73
f 91/92/74 50/91/73 66/97/76
f 65/96/75 91/95/74 66/98/76
f 65/96/75 66/98/76 6/99/77
f 71/100/78 5/101/68 64/102/69
f 71/100/78 64/102/69 92/103/79
f 53/104/80 71/100/78 92/103/79
f 53/104/80 92/103/79 79/105/81
f 92/103/79 64/102/69 49/93/71
f 92/103/79 49/93/71 78/106/82
f 79/105/81 92/103/79 78/106/82
f 79/105/81 78/106/82 56/107/83
f 70/108/84 53/104/80 79/105/81
f 70/108/84 79/105/81 93/109/85
f 1/110/58 70/108/84 93/109/85
f 1/110/58 93/109/85 61/111/56
f 93/109/85 79/105/81 56/107/83
f 93/109/85 56/107/83 80/112/86
f 61/111/56 93/109/85 80/112/86
f 61/111/56 80/112/86 47/113/51
f 78/106/82 49/93/71 65/96/75
f 78/106/82 65/96/75 94/114/87
f 56/107/83 78/106/82 94/114/87
f 56/107/83 94/114/87 81/115/88
f 94/114/87 65/96/75 6/99/77
f 94/114/87 6/99/77 69/116/89
f 81/115/88 94/114/87 69/116/89
f 81/115/88 69/116/89 52/117/90
f 80/112/86 56/107/83 81/115/88
f 80/112/86 81/115/88 95/118/91
f 47/113/51 80/112/86 95/118/91
f 47/113/51 95/118/91 62/119/47
f 95/118/91 81/115/88 52/117/90
f 95/118/91 52/117/90 68/120/92
f 62/119/47 95/118/91 68/120/92
f 62/119/47 68/120/92 2/121/48
f 69/116/89 6/99/77 66/98/76
f 69/116/89 66/98/76 96/122/93
f 52/117/90 69/116/89 96/122/93
f 52/117/90 96/122/93 83/123/94
f 96/122/93 66/98/76 50/124/73
f 96/122/93 50/124/73 82/125/95
f 83/126/94 96/127/93 82/128/95
f 83/126/94 82/128/95 57/129/96
f 68/120/92 52/117/90 83/123/94
f 68/120/92 83/123/94 97/130/97
f 2/121/48 68/120/92 97/130/97
f 2/121/48 97/130/97 60/131/49
f 97/132/97 83/126/94 57/129/96
f 97/132/97 57/129/96 84/133/98
f 60/131/49 97/130/97 84/134/98
f 60/131/49 84/134/98 46/135/53
f 82/128/95 7/8/45 43/7/44
f 57/129/96 82/128/95 43/7/44
f 82/128/95 50/136/73 7/8/45
f 84/133/98 43/7/44 3/11/43
f 46/137/53 84/133/98 3/11/43
f 84/133/98 57/129/96 43/7/44
f 70/138/84 1/139/58 63/140/59
f 70/138/84 63/140/59 98/141/99
f 53/142/80 70/138/84 98/141/99
f 53/142/80 98/141/99 86/143/100
f 98/141/99 63/140/59 48/144/61
f 98/141/99 48/144/61 85/145/101
f 86/143/100 98/141/99 85/145/101
f 86/143/100 85/145/101 59/146/102
f 71/147/78 53/142/80 86/143/100
f 71/147/78 86/143/100 99/148/103
f 5/149/68 71/147/78 99/148/103
f 5/149/68 99/148/103 67/150/66
f 99/148/103 86/143/100 59/146/102
f 99/148/103 59/146/102 87/151/104
f 67/150/66 99/148/103 87/151/104
f 67/150/66 87/151/104 51/152/65
f 85/145/101 4/54/41 41/53/40
f 59/146/102 85/145/101 41/53/40
f 85/145/101 48/144/61 4/54/41
f 87/151/104 41/53/40 8/153/46
f 51/152/65 87/151/104 8/153/46
f 87/151/104 59/146/102 41/53/40
