# Blender v2.62 (sub 0) OBJ File: ''
# www.blender.org
v 0.073712 -0.000000 -0.175340
v 0.073712 -0.240746 -0.175340
v -0.537785 -0.240746 -0.175340
v -0.537785 -0.000000 -0.175340
v 0.073712 0.240745 -0.175340
v -0.537785 0.240745 -0.175340
v -1.149283 -0.240746 -0.175340
v -1.149283 -0.000000 -0.175340
v -1.149283 0.240745 -0.175340
v 0.073712 -0.240746 0.082434
v -0.537785 -0.240746 0.082434
v -0.537786 -0.240746 0.340209
v -1.149283 -0.240746 0.340209
v -1.149283 -0.240746 0.082434
v -1.149283 0.000000 0.340209
v -1.149283 0.000000 0.082434
v -1.149283 0.240745 0.340209
v -1.149283 0.240745 0.082434
v 0.073712 0.240745 0.082434
v -0.537785 0.240745 0.082434
v -0.537785 0.240745 0.340209
v 0.185881 0.000000 0.403717
v 0.185881 -0.240746 0.403717
v 0.298050 -0.240746 0.467224
v 0.298050 0.000000 0.467224
v 0.185882 0.240745 0.403717
v 0.298051 0.240745 0.467224
v 0.185881 -0.240746 0.000547
v 0.185881 -0.240746 0.202132
v 0.073712 -0.240746 0.340209
v 0.298050 -0.240746 0.176434
v 0.298050 -0.240746 0.321829
v 0.073712 0.240745 0.340209
v 0.185881 0.240745 0.202132
v 0.185881 0.240745 0.000547
v 0.298051 0.240745 0.321829
v 0.298050 0.240745 0.176434
v 0.185881 0.000000 0.000547
v 0.298050 0.000000 0.176434
v 0.471526 0.240745 0.176434
v 0.471526 0.000000 0.176434
v 0.471526 -0.240746 0.176434
v 0.645001 0.240745 0.176434
v 0.645001 0.000000 0.176434
v 0.645001 -0.240746 0.176434
v 0.471526 0.240745 0.448215
v 0.471526 0.240745 0.312324
v 0.645001 0.240745 0.429206
v 0.645001 0.240745 0.302820
v 0.471525 -0.240746 0.312324
v 0.471525 -0.240746 0.448215
v 0.645000 -0.240746 0.302820
v 0.645000 -0.240746 0.429206
v 0.864368 0.240745 0.122125
v 0.864368 0.000000 0.122125
v 0.864368 -0.240746 0.122125
v 1.083734 0.240745 0.067816
v 1.083734 -0.000001 0.067816
v 1.083734 -0.240746 0.067816
v 0.471525 -0.120373 0.522899
v 0.645001 -0.000001 0.578574
v 0.471526 0.120372 0.522899
v 0.645000 -0.120373 0.503890
v 0.645001 0.120372 0.503890
v 0.754683 -0.240746 0.350894
v 0.754684 -0.120373 0.414282
v 0.754684 -0.000001 0.477670
v 0.864367 -0.240746 0.272583
v 0.864367 -0.120373 0.324675
v 0.864368 -0.000001 0.376766
v 0.754685 0.120372 0.414282
v 0.754685 0.240745 0.350894
v 0.864368 0.120372 0.324675
v 0.864368 0.240745 0.272583
v 0.974050 -0.240746 0.175262
v 0.974050 -0.120373 0.227354
v 0.974051 -0.000001 0.279446
v 1.083733 -0.240746 0.077941
v 1.083734 -0.120373 0.130033
v 1.083734 -0.000001 0.182125
v 0.974051 0.120372 0.227354
v 0.974052 0.240745 0.175262
v 1.083735 0.120372 0.130033
v 1.083735 0.240745 0.077941
v 0.974051 -0.240746 0.170199
v 0.754684 -0.240746 0.224508
v 1.083734 -0.240746 0.072878
v 0.754685 0.240745 0.224508
v 0.974051 0.240745 0.170199
v 1.083735 0.240745 0.072878
v 1.083734 0.120372 0.124970
v 1.083734 -0.120373 0.124970
v -0.537785 0.137947 0.354571
v -0.537785 0.000000 0.340209
v -0.226244 0.231087 0.335347
v -0.225486 0.132821 0.341923
v 0.059423 0.144198 0.352204
v -0.214056 0.000000 0.325116
v 0.073712 0.000000 0.340209
v -0.537785 -0.137947 0.354571
v -0.225487 -0.132821 0.341923
v 0.059423 -0.144199 0.352204
v -0.226244 -0.231088 0.335347
vt 0.757071 0.468033
vt 0.664694 0.468316
vt 0.663977 0.234442
vt 0.756354 0.234158
vt 0.849448 0.467749
vt 0.848730 0.233875
vt 0.663259 0.000567
vt 0.755636 0.000283
vt 0.848013 0.000000
vt 0.476531 0.467549
vt 0.377984 0.476035
vt 0.357853 0.242261
vt 0.456399 0.233775
vt 0.259306 0.250747
vt 0.239174 0.016973
vt 0.337721 0.008486
vt 0.436268 0.000000
vt 0.848316 0.871649
vt 0.848620 0.970560
vt 0.756243 0.970843
vt 0.755939 0.871932
vt 0.848013 0.772738
vt 0.755636 0.773021
vt 0.663866 0.971127
vt 0.663563 0.872216
vt 0.663259 0.773305
vt 0.139719 0.385982
vt 0.238265 0.394468
vt 0.218134 0.628243
vt 0.119587 0.619756
vt 0.198002 0.862017
vt 0.099456 0.853531
vt 0.021040 0.611270
vt 0.000909 0.845044
vt 0.569658 0.325068
vt 0.477281 0.325291
vt 0.477166 0.278737
vt 0.569543 0.278513
vt 0.662035 0.324844
vt 0.661920 0.278290
vt 0.412982 0.516221
vt 0.335917 0.522858
vt 0.279437 0.484521
vt 0.258851 0.529494
vt 0.349434 0.564894
vt 0.293849 0.569680
vt 0.238265 0.574467
vt 0.041172 0.377496
vt 0.020586 0.332523
vt 0.097651 0.339159
vt 0.174717 0.345796
vt 0.000000 0.287550
vt 0.055584 0.292336
vt 0.111168 0.297123
vt 0.848903 0.865115
vt 0.849186 0.772738
vt 0.924593 0.772968
vt 0.924310 0.865345
vt 0.848620 0.957491
vt 0.924027 0.957722
vt 1.000000 0.773199
vt 0.999717 0.865575
vt 0.999434 0.957952
vt 0.755636 0.468599
vt 0.848013 0.468316
vt 0.848216 0.534664
vt 0.755840 0.534947
vt 0.663259 0.468883
vt 0.663463 0.535231
vt 0.848420 0.601012
vt 0.756043 0.601295
vt 0.663666 0.601578
vt 0.012978 0.221856
vt 0.064929 0.226330
vt 0.116879 0.230804
vt 0.025956 0.156163
vt 0.074273 0.160324
vt 0.122591 0.164485
vt 0.355145 0.631213
vt 0.303194 0.635687
vt 0.251243 0.640160
vt 0.360856 0.697533
vt 0.312539 0.701693
vt 0.264222 0.705854
vt 0.848683 0.686592
vt 0.756306 0.686875
vt 0.663929 0.687158
vt 0.848945 0.772171
vt 0.756568 0.772455
vt 0.664191 0.772738
vt 0.523186 0.209399
vt 0.569206 0.140061
vt 0.615563 0.209175
vt 0.477012 0.214379
vt 0.476859 0.150021
vt 0.523032 0.145041
vt 0.615409 0.144817
vt 0.661766 0.213931
vt 0.661613 0.149573
vt 0.476775 0.113650
vt 0.522951 0.109406
vt 0.569126 0.105163
vt 0.476691 0.077278
vt 0.522869 0.073771
vt 0.569047 0.070264
vt 0.615327 0.109182
vt 0.661529 0.113202
vt 0.615246 0.073547
vt 0.661445 0.076831
vt 0.476611 0.042146
vt 0.522789 0.038639
vt 0.568967 0.035132
vt 0.476531 0.007014
vt 0.522709 0.003507
vt 0.568887 0.000000
vt 0.615166 0.038415
vt 0.661365 0.041698
vt 0.615086 0.003283
vt 0.661285 0.006566
vt 0.374072 0.823123
vt 0.331320 0.784561
vt 0.346088 0.741047
vt 0.388840 0.779608
vt 0.416824 0.861684
vt 0.414889 0.861850
vt 0.412953 0.862016
vt 0.372137 0.823289
vt 0.297771 0.745207
vt 0.107823 0.120970
vt 0.093055 0.077456
vt 0.135807 0.038895
vt 0.150575 0.082409
vt 0.178559 0.000334
vt 0.059506 0.116809
vt 0.133872 0.038728
vt 0.176624 0.000167
vt 0.174688 0.000000
vt 0.870745 0.514570
vt 0.891978 0.560824
vt 0.870462 0.606947
vt 0.849228 0.560693
vt 0.849511 0.468316
vt 0.848945 0.653070
vt 0.851404 0.468322
vt 0.853298 0.468328
vt 0.872638 0.514576
vt 0.872355 0.606952
vt 0.850838 0.653075
vt 0.852732 0.653081
vt 0.623257 0.601787
vt 0.663259 0.833857
vt 0.570882 0.834081
vt 0.570327 0.602851
vt 0.662704 0.602628
vt 0.658716 0.485149
vt 0.621009 0.484525
vt 0.662149 0.371399
vt 0.625113 0.376110
vt 0.570037 0.481421
vt 0.569772 0.371622
vt 0.517393 0.602043
vt 0.478505 0.834304
vt 0.477950 0.603075
vt 0.519079 0.484772
vt 0.514452 0.376377
vt 0.481374 0.485578
vt 0.477395 0.371846
vt 0.271417 0.369689
vt 0.033152 0.492328
vn 0.000000 -0.000000 -1.000000
vn 0.000000 -1.000000 0.000001
vn 0.000000 -1.000000 0.000000
vn -1.000000 -0.000000 0.000000
vn 0.000000 1.000000 -0.000001
vn 0.000000 1.000000 -0.000000
vn -0.492687 0.000000 0.870207
vn -0.492687 0.000002 0.870207
vn -0.492687 0.000003 0.870207
vn 0.843138 -0.000000 -0.537697
vn -0.240316 -0.000000 -0.970695
vn -0.240317 -0.000000 -0.970694
vn -0.305587 0.000002 0.952164
vn -0.305586 0.000002 0.952164
vn -0.305587 0.000000 0.952164
vn 0.092711 -0.524937 0.846076
vn 0.092711 -0.524937 0.846077
vn 0.092711 -0.524941 0.846074
vn 0.092711 0.524938 0.846076
vn 0.518701 -0.450740 0.726487
vn 0.585831 -0.377617 0.717082
vn 0.570261 -0.433089 0.698024
vn 0.631290 -0.361361 0.686215
vn 0.534084 -0.393924 0.748049
vn 0.599881 -0.317763 0.734282
vn 0.585831 -0.377616 0.717083
vn 0.645109 -0.303468 0.701243
vn 0.615876 0.415358 0.669459
vn 0.585833 0.377610 0.717085
vn 0.570263 0.433082 0.698026
vn 0.534090 0.393920 0.748048
vn 0.631289 0.361356 0.686219
vn 0.599882 0.317759 0.734283
vn 0.585831 0.377614 0.717084
vn 0.548072 0.332198 0.767634
vn 0.631439 -0.307968 0.711646
vn 0.631439 -0.307970 0.711646
vn 0.631434 -0.307976 0.711648
vn 0.631434 -0.307974 0.711648
vn 0.631434 -0.307976 0.711647
vn 0.631438 -0.307970 0.711646
vn 0.631436 0.307965 0.711650
vn 0.631439 0.307969 0.711646
vn 0.631437 0.307965 0.711650
vn -0.000001 -1.000000 -0.000000
vn 0.000002 -1.000000 0.000003
vn -0.000002 1.000000 -0.000003
vn 0.000001 1.000000 0.000000
vn 1.000000 -0.000000 0.000000
vn 1.000000 -0.000089 -0.000188
vn 1.000000 -0.000101 0.000212
vn -0.023480 0.000000 0.999724
vn 0.000000 -0.103552 0.994624
vn -0.000000 0.138368 0.990381
vn 0.019742 0.138341 0.990188
vn 0.041474 0.067033 0.996888
vn -0.018315 0.066620 0.997610
vn -0.040910 0.129150 0.990781
vn 0.038554 -0.103475 0.993885
vn 0.046227 -0.121487 0.991516
vn -0.030657 -0.128074 0.991291
vn -0.052174 -0.087918 0.994760
vn 0.000000 -0.138365 0.990381
vn -0.000000 0.103553 0.994624
vn 0.046322 0.103442 0.993556
vn 0.038161 0.122213 0.991770
vn -0.051934 0.129767 0.990183
vn -0.032496 0.086051 0.995761
vn 0.042343 -0.138241 0.989493
vn 0.017643 -0.066895 0.997604
vn -0.038631 -0.066424 0.997043
vn -0.020140 -0.126201 0.991800
vn 0.000000 -0.999272 0.038160
vn -0.032181 -0.999482 0.000000
vn 0.030986 -0.999520 0.000001
vn -0.000000 0.999272 0.038159
vn 0.030986 0.999520 -0.000000
vn -0.032181 0.999482 -0.000000
vn -0.377254 0.000000 0.926110
vn -0.489113 0.120328 0.863880
vn -0.484813 -0.178137 0.856285
vn -0.377252 0.000002 0.926111
vn -0.484809 0.178137 0.856287
vn -0.489113 -0.120328 0.863880
s off
f 1/1/1 2/2/1 3/3/1
f 1/1/1 3/3/1 4/4/1
f 5/5/1 1/1/1 4/4/1
f 5/5/1 4/4/1 6/6/1
f 4/4/1 3/3/1 7/7/1
f 4/4/1 7/7/1 8/8/1
f 6/6/1 4/4/1 8/8/1
f 6/6/1 8/8/1 9/9/1
f 2/10/2 10/11/2 11/12/2
f 2/10/2 11/12/2 3/13/2
f 11/12/3 12/14/3 13/15/3
f 11/12/3 13/15/3 14/16/3
f 3/13/2 11/12/2 14/16/2
f 3/13/2 14/16/2 7/17/2
f 14/18/4 13/19/4 15/20/4
f 14/18/4 15/20/4 16/21/4
f 7/22/4 14/18/4 16/21/4
f 7/22/4 16/21/4 8/23/4
f 16/21/4 15/20/4 17/24/4
f 16/21/4 17/24/4 18/25/4
f 8/23/4 16/21/4 18/25/4
f 8/23/4 18/25/4 9/26/4
f 19/27/5 5/28/5 6/29/5
f 19/27/5 6/29/5 20/30/5
f 20/30/5 6/29/5 9/31/5
f 20/30/5 9/31/5 18/32/5
f 21/33/6 20/30/6 18/32/6
f 21/33/6 18/32/6 17/34/6
f 22/35/7 23/36/7 24/37/7
f 22/35/7 24/37/7 25/38/7
f 26/39/8 22/35/8 25/38/8
f 26/39/9 25/38/9 27/40/9
f 10/11/2 2/10/2 28/41/2
f 10/11/3 28/41/3 29/42/3
f 30/43/3 10/11/3 29/42/3
f 30/43/2 29/42/2 23/44/2
f 29/42/3 28/41/3 31/45/3
f 29/42/3 31/45/3 32/46/3
f 23/44/2 29/42/2 32/46/2
f 23/44/2 32/46/2 24/47/2
f 19/27/6 33/48/6 26/49/6
f 19/27/5 26/49/5 34/50/5
f 5/28/5 19/27/5 34/50/5
f 5/28/6 34/50/6 35/51/6
f 34/50/5 26/49/5 27/52/5
f 34/50/5 27/52/5 36/53/5
f 35/51/6 34/50/6 36/53/6
f 35/51/6 36/53/6 37/54/6
f 1/55/10 5/56/10 35/57/10
f 1/55/10 35/57/10 38/58/10
f 2/59/10 1/55/10 38/58/10
f 2/59/10 38/58/10 28/60/10
f 38/58/10 35/57/10 37/61/10
f 38/58/10 37/61/10 39/62/10
f 28/60/10 38/58/10 39/62/10
f 28/60/10 39/62/10 31/63/10
f 39/64/1 37/65/1 40/66/1
f 39/64/1 40/66/1 41/67/1
f 31/68/1 39/64/1 41/67/1
f 31/68/1 41/67/1 42/69/1
f 41/67/1 40/66/1 43/70/1
f 41/67/1 43/70/1 44/71/1
f 42/69/1 41/67/1 44/71/1
f 42/69/1 44/71/1 45/72/1
f 36/53/5 27/52/5 46/73/5
f 36/53/6 46/73/6 47/74/6
f 37/54/6 36/53/6 47/74/6
f 37/54/6 47/74/6 40/75/6
f 47/74/6 46/73/6 48/76/6
f 47/74/6 48/76/6 49/77/6
f 40/75/6 47/74/6 49/77/6
f 40/75/6 49/77/6 43/78/6
f 32/46/3 31/45/3 42/79/3
f 32/46/3 42/79/3 50/80/3
f 24/47/2 32/46/2 50/80/2
f 24/47/3 50/80/3 51/81/3
f 50/80/3 42/79/3 45/82/3
f 50/80/3 45/82/3 52/83/3
f 51/81/3 50/80/3 52/83/3
f 51/81/3 52/83/3 53/84/3
f 44/71/11 43/70/11 54/85/11
f 44/71/11 54/85/11 55/86/11
f 45/72/11 44/71/11 55/86/11
f 45/72/11 55/86/11 56/87/11
f 55/86/12 54/85/12 57/88/12
f 55/86/12 57/88/12 58/89/12
f 56/87/12 55/86/12 58/89/12
f 56/87/12 58/89/12 59/90/12
f 60/91/13 61/92/13 62/93/13
f 62/93/14 25/38/14 60/91/14
f 24/37/15 60/91/15 25/38/15
f 25/38/14 62/93/14 27/40/14
f 51/94/16 53/95/16 63/96/16
f 63/96/16 60/91/16 51/94/16
f 24/37/17 51/94/17 60/91/17
f 60/91/18 63/96/18 61/92/18
f 62/93/19 61/92/19 64/97/19
f 64/97/19 46/98/19 62/93/19
f 27/40/19 62/93/19 46/98/19
f 46/98/19 64/97/19 48/99/19
f 63/96/20 53/95/20 65/100/20
f 63/96/21 65/100/21 66/101/21
f 61/92/22 63/96/22 66/101/22
f 61/92/23 66/101/23 67/102/23
f 66/101/24 65/100/24 68/103/24
f 66/101/25 68/103/25 69/104/25
f 67/102/26 66/101/26 69/104/26
f 67/102/27 69/104/27 70/105/27
f 64/97/28 61/92/28 67/102/28
f 64/97/29 67/102/29 71/106/29
f 48/99/30 64/97/30 71/106/30
f 48/99/31 71/106/31 72/107/31
f 71/106/32 67/102/32 70/105/32
f 71/106/33 70/105/33 73/108/33
f 72/107/34 71/106/34 73/108/34
f 72/107/35 73/108/35 74/109/35
f 69/104/36 68/103/36 75/110/36
f 69/104/36 75/110/36 76/111/36
f 70/105/37 69/104/37 76/111/37
f 70/105/38 76/111/38 77/112/38
f 76/111/36 75/110/36 78/113/36
f 76/111/39 78/113/39 79/114/39
f 77/112/40 76/111/40 79/114/40
f 77/112/41 79/114/41 80/115/41
f 73/108/42 70/105/42 77/112/42
f 73/108/43 77/112/43 81/116/43
f 74/109/43 73/108/43 81/116/43
f 74/109/44 81/116/44 82/117/44
f 81/116/43 77/112/43 80/115/43
f 81/116/44 80/115/44 83/118/44
f 82/117/44 81/116/44 83/118/44
f 82/117/43 83/118/43 84/119/43
f 85/120/2 68/121/2 86/122/2
f 86/122/3 56/123/3 85/120/3
f 59/124/3 85/120/3 56/123/3
f 56/123/3 86/122/3 45/82/3
f 87/125/45 78/126/45 75/127/45
f 75/127/46 85/120/46 87/125/46
f 59/124/3 87/125/3 85/120/3
f 85/120/46 75/127/46 68/121/46
f 86/122/3 68/121/3 65/128/3
f 65/128/3 52/83/3 86/122/3
f 45/82/3 86/122/3 52/83/3
f 52/83/3 65/128/3 53/84/3
f 88/129/5 74/130/5 89/131/5
f 89/131/6 54/132/6 88/129/6
f 43/78/6 88/129/6 54/132/6
f 54/132/6 89/131/6 57/133/6
f 49/77/6 48/76/6 72/134/6
f 72/134/6 88/129/6 49/77/6
f 43/78/6 49/77/6 88/129/6
f 88/129/6 72/134/6 74/130/6
f 89/131/47 74/130/47 82/135/47
f 82/135/47 90/136/47 89/131/47
f 57/133/6 89/131/6 90/136/6
f 90/136/48 82/135/48 84/137/48
f 91/138/49 80/139/49 92/140/49
f 92/140/49 58/141/49 91/138/49
f 57/142/49 91/138/49 58/141/49
f 58/141/49 92/140/49 59/143/49
f 90/144/49 84/145/49 83/146/49
f 83/146/50 91/138/50 90/144/50
f 57/142/50 90/144/50 91/138/50
f 91/138/50 83/146/50 80/139/50
f 92/140/49 80/139/49 79/147/49
f 79/147/49 87/148/49 92/140/49
f 59/143/49 92/140/49 87/148/49
f 87/148/51 79/147/51 78/149/51
f 93/150/52 17/151/52 15/152/52
f 94/153/53 93/150/53 15/152/53
f 93/150/54 21/154/54 17/151/54
f 95/155/55 21/154/55 93/150/55
f 95/155/56 93/150/56 96/156/56
f 33/157/57 95/155/57 96/156/57
f 33/157/58 96/156/58 97/158/58
f 96/156/59 93/150/59 94/153/59
f 96/156/60 94/153/60 98/159/60
f 97/158/61 96/156/61 98/159/61
f 97/158/62 98/159/62 99/160/62
f 100/161/52 15/152/52 13/162/52
f 12/163/63 100/161/63 13/162/63
f 100/161/64 94/153/64 15/152/64
f 98/159/65 94/153/65 100/161/65
f 98/159/66 100/161/66 101/164/66
f 99/160/67 98/159/67 101/164/67
f 99/160/68 101/164/68 102/165/68
f 101/164/69 100/161/69 12/163/69
f 101/164/70 12/163/70 103/166/70
f 102/165/71 101/164/71 103/166/71
f 102/165/72 103/166/72 30/167/72
f 103/168/73 11/12/73 10/11/73
f 30/43/74 103/168/74 10/11/74
f 103/168/75 12/14/75 11/12/75
f 95/169/76 19/27/76 20/30/76
f 21/33/77 95/169/77 20/30/77
f 95/169/78 33/48/78 19/27/78
f 102/165/79 23/36/79 22/35/79
f 99/160/80 102/165/80 22/35/80
f 102/165/81 30/167/81 23/36/81
f 97/158/82 22/35/82 26/39/82
f 33/157/83 97/158/83 26/39/83
f 97/158/84 99/160/84 22/35/84
